<svg width="248" height="82" viewBox="0 0 248 82" fill="none" xmlns="http://www.w3.org/2000/svg">
<path d="M2.87109 8.65918V11.3594C2.87109 11.9427 2.9349 12.305 3.0625 12.4463C3.23568 12.6468 3.49772 12.7471 3.84863 12.7471H4.2041V13H0.232422V12.7471H0.581055C0.972982 12.7471 1.25326 12.6195 1.42188 12.3643C1.51302 12.223 1.55859 11.888 1.55859 11.3594V5.37109C1.55859 4.78776 1.49707 4.42546 1.37402 4.28418C1.19629 4.08366 0.931966 3.9834 0.581055 3.9834H0.232422V3.73047H3.62988C4.45931 3.73047 5.11328 3.81706 5.5918 3.99023C6.07031 4.15885 6.47363 4.44596 6.80176 4.85156C7.12988 5.25716 7.29395 5.73796 7.29395 6.29395C7.29395 7.05046 7.04329 7.66569 6.54199 8.13965C6.04525 8.61361 5.34115 8.85059 4.42969 8.85059C4.20638 8.85059 3.96484 8.83464 3.70508 8.80273C3.44531 8.77083 3.16732 8.72298 2.87109 8.65918ZM2.87109 8.26953C3.11263 8.3151 3.32682 8.34928 3.51367 8.37207C3.70052 8.39486 3.86003 8.40625 3.99219 8.40625C4.46615 8.40625 4.87402 8.22396 5.21582 7.85938C5.56217 7.49023 5.73535 7.014 5.73535 6.43066C5.73535 6.02962 5.65332 5.6582 5.48926 5.31641C5.3252 4.97005 5.09277 4.71257 4.79199 4.54395C4.49121 4.37077 4.14941 4.28418 3.7666 4.28418C3.53418 4.28418 3.23568 4.32747 2.87109 4.41406V8.26953ZM10.873 6.55371C11.8209 6.55371 12.582 6.91374 13.1562 7.63379C13.6438 8.24902 13.8876 8.9554 13.8876 9.75293C13.8876 10.3135 13.7532 10.8809 13.4843 11.4551C13.2154 12.0293 12.844 12.4622 12.37 12.7539C11.9006 13.0456 11.3765 13.1914 10.7978 13.1914C9.85441 13.1914 9.10474 12.8154 8.54875 12.0635C8.07935 11.43 7.84465 10.7191 7.84465 9.93066C7.84465 9.35645 7.98592 8.78678 8.26848 8.22168C8.55559 7.65202 8.93156 7.23275 9.39641 6.96387C9.86125 6.69043 10.3534 6.55371 10.873 6.55371ZM10.6611 6.99805C10.4195 6.99805 10.1757 7.07096 9.92961 7.2168C9.68807 7.35807 9.49211 7.60872 9.34172 7.96875C9.19133 8.32878 9.11613 8.79134 9.11613 9.35645C9.11613 10.2679 9.29615 11.054 9.65617 11.7148C10.0208 12.3757 10.4993 12.7061 11.0917 12.7061C11.5338 12.7061 11.8984 12.5238 12.1855 12.1592C12.4726 11.7946 12.6161 11.168 12.6161 10.2793C12.6161 9.16732 12.3769 8.29232 11.8984 7.6543C11.5748 7.2168 11.1624 6.99805 10.6611 6.99805ZM16.2225 6.55371V7.96191C16.7466 7.02311 17.2843 6.55371 17.8358 6.55371C18.0864 6.55371 18.2938 6.63118 18.4579 6.78613C18.6219 6.93652 18.7039 7.11198 18.7039 7.3125C18.7039 7.49023 18.6447 7.64062 18.5262 7.76367C18.4077 7.88672 18.2664 7.94824 18.1024 7.94824C17.9429 7.94824 17.7629 7.87077 17.5623 7.71582C17.3664 7.55632 17.2205 7.47656 17.1248 7.47656C17.0428 7.47656 16.9539 7.52214 16.8582 7.61328C16.6532 7.80013 16.4412 8.10775 16.2225 8.53613V11.5371C16.2225 11.8835 16.2658 12.1455 16.3524 12.3232C16.4116 12.4463 16.5164 12.5488 16.6668 12.6309C16.8172 12.7129 17.0337 12.7539 17.3162 12.7539V13H14.1102V12.7539C14.4292 12.7539 14.6662 12.7038 14.8211 12.6035C14.9351 12.5306 15.0148 12.4144 15.0604 12.2549C15.0832 12.1774 15.0946 11.9564 15.0946 11.5918V9.16504C15.0946 8.43587 15.0786 8.00293 15.0467 7.86621C15.0194 7.72493 14.9647 7.6224 14.8827 7.55859C14.8052 7.49479 14.7072 7.46289 14.5887 7.46289C14.4474 7.46289 14.2879 7.49707 14.1102 7.56543L14.0418 7.31934L15.9354 6.55371H16.2225ZM20.4509 4.68066V6.73828H21.9138V7.2168H20.4509V11.2773C20.4509 11.6829 20.5079 11.9564 20.6218 12.0977C20.7403 12.2389 20.8907 12.3096 21.073 12.3096C21.2234 12.3096 21.3692 12.264 21.5105 12.1729C21.6518 12.0771 21.7612 11.9382 21.8386 11.7559H22.1052C21.9457 12.2025 21.7201 12.5397 21.4285 12.7676C21.1368 12.9909 20.836 13.1025 20.5261 13.1025C20.3165 13.1025 20.1114 13.0456 19.9109 12.9316C19.7104 12.8132 19.5623 12.6468 19.4666 12.4326C19.3709 12.2139 19.323 11.8789 19.323 11.4277V7.2168H18.3318V6.99121C18.5824 6.89095 18.8377 6.72233 19.0974 6.48535C19.3617 6.24382 19.5964 5.95898 19.8015 5.63086C19.9063 5.45768 20.0522 5.14095 20.239 4.68066H20.4509ZM24.5563 7.23047V11.3457C24.5563 11.929 24.6201 12.2982 24.7477 12.4531C24.9164 12.6536 25.1419 12.7539 25.4245 12.7539H25.9919V13H22.2526V12.7539H22.5329C22.7152 12.7539 22.8815 12.7083 23.0319 12.6172C23.1823 12.526 23.2848 12.403 23.3395 12.248C23.3988 12.0931 23.4284 11.7923 23.4284 11.3457V7.23047H22.2116V6.73828H23.4284V6.32812C23.4284 5.70378 23.5287 5.17513 23.7292 4.74219C23.9297 4.30924 24.235 3.96061 24.6452 3.69629C25.0599 3.42741 25.5248 3.29297 26.0397 3.29297C26.5182 3.29297 26.958 3.44792 27.3591 3.75781C27.6234 3.96289 27.7555 4.19303 27.7555 4.44824C27.7555 4.58496 27.6963 4.71484 27.5778 4.83789C27.4593 4.95638 27.3317 5.01562 27.195 5.01562C27.0902 5.01562 26.9785 4.97917 26.86 4.90625C26.7461 4.82878 26.6048 4.66699 26.4362 4.4209C26.2676 4.17025 26.1126 4.00163 25.9714 3.91504C25.8301 3.82845 25.6729 3.78516 25.4997 3.78516C25.2901 3.78516 25.1123 3.84212 24.9665 3.95605C24.8207 4.06543 24.7158 4.23861 24.652 4.47559C24.5882 4.70801 24.5563 5.31185 24.5563 6.28711V6.73828H26.1696V7.23047H24.5563ZM29.4137 6.55371C30.3616 6.55371 31.1227 6.91374 31.6969 7.63379C32.1845 8.24902 32.4283 8.9554 32.4283 9.75293C32.4283 10.3135 32.2939 10.8809 32.025 11.4551C31.7561 12.0293 31.3847 12.4622 30.9107 12.7539C30.4413 13.0456 29.9173 13.1914 29.3385 13.1914C28.3951 13.1914 27.6454 12.8154 27.0895 12.0635C26.6201 11.43 26.3854 10.7191 26.3854 9.93066C26.3854 9.35645 26.5266 8.78678 26.8092 8.22168C27.0963 7.65202 27.4723 7.23275 27.9371 6.96387C28.402 6.69043 28.8941 6.55371 29.4137 6.55371ZM29.2018 6.99805C28.9602 6.99805 28.7164 7.07096 28.4703 7.2168C28.2288 7.35807 28.0328 7.60872 27.8824 7.96875C27.732 8.32878 27.6568 8.79134 27.6568 9.35645C27.6568 10.2679 27.8368 11.054 28.1969 11.7148C28.5615 12.3757 29.04 12.7061 29.6324 12.7061C30.0745 12.7061 30.4391 12.5238 30.7262 12.1592C31.0133 11.7946 31.1568 11.168 31.1568 10.2793C31.1568 9.16732 30.9176 8.29232 30.4391 7.6543C30.1155 7.2168 29.7031 6.99805 29.2018 6.99805ZM35.0845 3.2793V11.585C35.0845 11.9769 35.1118 12.2367 35.1665 12.3643C35.2258 12.4919 35.3146 12.5898 35.4331 12.6582C35.5516 12.722 35.7726 12.7539 36.0962 12.7539V13H33.0269V12.7539C33.314 12.7539 33.5099 12.7243 33.6148 12.665C33.7196 12.6058 33.8016 12.5078 33.8609 12.3711C33.9201 12.2344 33.9497 11.9723 33.9497 11.585V5.89746C33.9497 5.19108 33.9338 4.75814 33.9019 4.59863C33.87 4.43457 33.8176 4.32292 33.7446 4.26367C33.6763 4.20443 33.5874 4.1748 33.478 4.1748C33.3596 4.1748 33.2092 4.21126 33.0269 4.28418L32.9107 4.04492L34.7769 3.2793H35.0845ZM38.0004 3.2793C38.1918 3.2793 38.3536 3.34766 38.4858 3.48438C38.6225 3.61654 38.6909 3.77832 38.6909 3.96973C38.6909 4.16113 38.6225 4.3252 38.4858 4.46191C38.3536 4.59863 38.1918 4.66699 38.0004 4.66699C37.809 4.66699 37.645 4.59863 37.5082 4.46191C37.3715 4.3252 37.3032 4.16113 37.3032 3.96973C37.3032 3.77832 37.3692 3.61654 37.5014 3.48438C37.6381 3.34766 37.8045 3.2793 38.0004 3.2793ZM38.5678 6.55371V11.585C38.5678 11.9769 38.5952 12.2389 38.6498 12.3711C38.7091 12.4987 38.7934 12.5944 38.9028 12.6582C39.0167 12.722 39.2218 12.7539 39.518 12.7539V13H36.476V12.7539C36.7814 12.7539 36.9864 12.7243 37.0913 12.665C37.1961 12.6058 37.2781 12.5078 37.3373 12.3711C37.4011 12.2344 37.433 11.9723 37.433 11.585V9.17188C37.433 8.49284 37.4125 8.05306 37.3715 7.85254C37.3396 7.70671 37.2895 7.60645 37.2211 7.55176C37.1528 7.49251 37.0594 7.46289 36.9409 7.46289C36.8133 7.46289 36.6583 7.49707 36.476 7.56543L36.3803 7.31934L38.267 6.55371H38.5678ZM42.9466 6.55371C43.8946 6.55371 44.6556 6.91374 45.2298 7.63379C45.7175 8.24902 45.9613 8.9554 45.9613 9.75293C45.9613 10.3135 45.8268 10.8809 45.558 11.4551C45.2891 12.0293 44.9177 12.4622 44.4437 12.7539C43.9743 13.0456 43.4502 13.1914 42.8714 13.1914C41.9281 13.1914 41.1784 12.8154 40.6224 12.0635C40.153 11.43 39.9183 10.7191 39.9183 9.93066C39.9183 9.35645 40.0596 8.78678 40.3421 8.22168C40.6293 7.65202 41.0052 7.23275 41.4701 6.96387C41.9349 6.69043 42.4271 6.55371 42.9466 6.55371ZM42.7347 6.99805C42.4932 6.99805 42.2494 7.07096 42.0033 7.2168C41.7617 7.35807 41.5658 7.60872 41.4154 7.96875C41.265 8.32878 41.1898 8.79134 41.1898 9.35645C41.1898 10.2679 41.3698 11.054 41.7298 11.7148C42.0944 12.3757 42.5729 12.7061 43.1654 12.7061C43.6074 12.7061 43.972 12.5238 44.2591 12.1592C44.5462 11.7946 44.6898 11.168 44.6898 10.2793C44.6898 9.16732 44.4505 8.29232 43.972 7.6543C43.6485 7.2168 43.236 6.99805 42.7347 6.99805ZM58.7863 3.73047V3.9834C58.4582 4.04264 58.2098 4.14746 58.0412 4.29785C57.7997 4.52116 57.5855 4.86296 57.3986 5.32324L54.1652 13.2119H53.9123L50.4396 5.2207C50.2619 4.81055 50.1366 4.5599 50.0637 4.46875C49.9497 4.32747 49.8085 4.2181 49.6398 4.14062C49.4758 4.05859 49.2525 4.00618 48.9699 3.9834V3.73047H52.757V3.9834C52.3286 4.02441 52.0507 4.09733 51.923 4.20215C51.7954 4.30697 51.7316 4.44141 51.7316 4.60547C51.7316 4.83333 51.8365 5.1888 52.0461 5.67188L54.4045 11.1064L56.592 5.74023C56.8062 5.21159 56.9133 4.84473 56.9133 4.63965C56.9133 4.50749 56.8472 4.38216 56.715 4.26367C56.5829 4.14062 56.3596 4.05404 56.0451 4.00391C56.0223 3.99935 55.9836 3.99251 55.9289 3.9834V3.73047H58.7863ZM60.9708 12.0977C60.3282 12.5944 59.9249 12.8815 59.7609 12.959C59.5148 13.0729 59.2527 13.1299 58.9747 13.1299C58.5418 13.1299 58.184 12.9818 57.9015 12.6855C57.6235 12.3893 57.4845 11.9997 57.4845 11.5166C57.4845 11.2113 57.5529 10.9469 57.6896 10.7236C57.8764 10.4137 58.2 10.1221 58.6603 9.84863C59.1251 9.5752 59.8953 9.24251 60.9708 8.85059V8.60449C60.9708 7.98014 60.8706 7.55176 60.67 7.31934C60.4741 7.08691 60.187 6.9707 59.8087 6.9707C59.5216 6.9707 59.2937 7.04818 59.1251 7.20312C58.9519 7.35807 58.8654 7.53581 58.8654 7.73633L58.879 8.13281C58.879 8.34245 58.8243 8.50423 58.715 8.61816C58.6101 8.7321 58.4711 8.78906 58.298 8.78906C58.1294 8.78906 57.9904 8.72982 57.881 8.61133C57.7762 8.49284 57.7238 8.33105 57.7238 8.12598C57.7238 7.73405 57.9243 7.37402 58.3253 7.0459C58.7264 6.71777 59.2892 6.55371 60.0138 6.55371C60.5698 6.55371 61.0255 6.64714 61.381 6.83398C61.6499 6.97526 61.8481 7.19629 61.9757 7.49707C62.0577 7.69303 62.0988 8.09408 62.0988 8.7002V10.8262C62.0988 11.4232 62.1101 11.79 62.1329 11.9268C62.1557 12.0589 62.1922 12.1478 62.2423 12.1934C62.297 12.2389 62.3585 12.2617 62.4269 12.2617C62.4998 12.2617 62.5636 12.2458 62.6183 12.2139C62.714 12.1546 62.8986 11.9883 63.172 11.7148V12.0977C62.6616 12.7812 62.1739 13.123 61.7091 13.123C61.4858 13.123 61.3081 13.0456 61.1759 12.8906C61.0437 12.7357 60.9754 12.4714 60.9708 12.0977ZM60.9708 11.6533V9.26758C60.2827 9.54102 59.8383 9.7347 59.6378 9.84863C59.2778 10.0492 59.0203 10.2588 58.8654 10.4775C58.7104 10.6963 58.6329 10.9355 58.6329 11.1953C58.6329 11.5234 58.7309 11.7969 58.9269 12.0156C59.1228 12.2298 59.3484 12.3369 59.6036 12.3369C59.95 12.3369 60.4057 12.109 60.9708 11.6533ZM65.377 3.2793V11.585C65.377 11.9769 65.4043 12.2367 65.459 12.3643C65.5183 12.4919 65.6071 12.5898 65.7256 12.6582C65.8441 12.722 66.0651 12.7539 66.3887 12.7539V13H63.3194V12.7539C63.6065 12.7539 63.8024 12.7243 63.9073 12.665C64.0121 12.6058 64.0941 12.5078 64.1534 12.3711C64.2126 12.2344 64.2422 11.9723 64.2422 11.585V5.89746C64.2422 5.19108 64.2263 4.75814 64.1944 4.59863C64.1625 4.43457 64.1101 4.32292 64.0371 4.26367C63.9688 4.20443 63.8799 4.1748 63.7705 4.1748C63.6521 4.1748 63.5017 4.21126 63.3194 4.28418L63.2032 4.04492L65.0694 3.2793H65.377ZM72.1894 6.73828V10.5322C72.1894 11.2568 72.2054 11.7012 72.2373 11.8652C72.2737 12.0247 72.3284 12.1364 72.4013 12.2002C72.4788 12.264 72.5677 12.2959 72.6679 12.2959C72.8092 12.2959 72.9687 12.2572 73.1464 12.1797L73.2421 12.4189L71.3691 13.1914H71.0615V11.8652C70.5237 12.4486 70.1136 12.8154 69.831 12.9658C69.5485 13.1162 69.25 13.1914 68.9355 13.1914C68.5846 13.1914 68.2793 13.0911 68.0195 12.8906C67.7643 12.6855 67.5866 12.4235 67.4863 12.1045C67.386 11.7855 67.3359 11.3343 67.3359 10.751V7.95508C67.3359 7.65885 67.304 7.45378 67.2402 7.33984C67.1764 7.22591 67.0807 7.13932 66.9531 7.08008C66.83 7.01628 66.6045 6.98665 66.2763 6.99121V6.73828H68.4707V10.9287C68.4707 11.512 68.5709 11.8949 68.7714 12.0771C68.9765 12.2594 69.2226 12.3506 69.5097 12.3506C69.7057 12.3506 69.9267 12.2891 70.1728 12.166C70.4235 12.043 70.7197 11.8083 71.0615 11.4619V7.91406C71.0615 7.55859 70.9954 7.31934 70.8632 7.19629C70.7356 7.06868 70.4668 7.00033 70.0566 6.99121V6.73828H72.1894ZM76.828 12.0977C76.1854 12.5944 75.7821 12.8815 75.618 12.959C75.372 13.0729 75.1099 13.1299 74.8319 13.1299C74.399 13.1299 74.0412 12.9818 73.7587 12.6855C73.4807 12.3893 73.3417 11.9997 73.3417 11.5166C73.3417 11.2113 73.41 10.9469 73.5468 10.7236C73.7336 10.4137 74.0572 10.1221 74.5175 9.84863C74.9823 9.5752 75.7525 9.24251 76.828 8.85059V8.60449C76.828 7.98014 76.7278 7.55176 76.5272 7.31934C76.3313 7.08691 76.0442 6.9707 75.6659 6.9707C75.3788 6.9707 75.1509 7.04818 74.9823 7.20312C74.8091 7.35807 74.7225 7.53581 74.7225 7.73633L74.7362 8.13281C74.7362 8.34245 74.6815 8.50423 74.5722 8.61816C74.4673 8.7321 74.3283 8.78906 74.1552 8.78906C73.9865 8.78906 73.8475 8.72982 73.7382 8.61133C73.6333 8.49284 73.5809 8.33105 73.5809 8.12598C73.5809 7.73405 73.7815 7.37402 74.1825 7.0459C74.5835 6.71777 75.1464 6.55371 75.871 6.55371C76.427 6.55371 76.8827 6.64714 77.2382 6.83398C77.507 6.97526 77.7053 7.19629 77.8329 7.49707C77.9149 7.69303 77.9559 8.09408 77.9559 8.7002V10.8262C77.9559 11.4232 77.9673 11.79 77.9901 11.9268C78.0129 12.0589 78.0494 12.1478 78.0995 12.1934C78.1542 12.2389 78.2157 12.2617 78.2841 12.2617C78.357 12.2617 78.4208 12.2458 78.4755 12.2139C78.5712 12.1546 78.7557 11.9883 79.0292 11.7148V12.0977C78.5188 12.7812 78.0311 13.123 77.5663 13.123C77.343 13.123 77.1653 13.0456 77.0331 12.8906C76.9009 12.7357 76.8326 12.4714 76.828 12.0977ZM76.828 11.6533V9.26758C76.1399 9.54102 75.6955 9.7347 75.495 9.84863C75.135 10.0492 74.8775 10.2588 74.7225 10.4775C74.5676 10.6963 74.4901 10.9355 74.4901 11.1953C74.4901 11.5234 74.5881 11.7969 74.7841 12.0156C74.98 12.2298 75.2056 12.3369 75.4608 12.3369C75.8072 12.3369 76.2629 12.109 76.828 11.6533ZM80.8992 4.68066V6.73828H82.3621V7.2168H80.8992V11.2773C80.8992 11.6829 80.9562 11.9564 81.0701 12.0977C81.1886 12.2389 81.339 12.3096 81.5213 12.3096C81.6717 12.3096 81.8175 12.264 81.9588 12.1729C82.1001 12.0771 82.2094 11.9382 82.2869 11.7559H82.5535C82.394 12.2025 82.1684 12.5397 81.8768 12.7676C81.5851 12.9909 81.2843 13.1025 80.9744 13.1025C80.7648 13.1025 80.5597 13.0456 80.3592 12.9316C80.1587 12.8132 80.0105 12.6468 79.9148 12.4326C79.8191 12.2139 79.7713 11.8789 79.7713 11.4277V7.2168H78.7801V6.99121C79.0307 6.89095 79.2859 6.72233 79.5457 6.48535C79.81 6.24382 80.0447 5.95898 80.2498 5.63086C80.3546 5.45768 80.5005 5.14095 80.6873 4.68066H80.8992ZM84.1501 3.2793C84.3415 3.2793 84.5033 3.34766 84.6355 3.48438C84.7722 3.61654 84.8405 3.77832 84.8405 3.96973C84.8405 4.16113 84.7722 4.3252 84.6355 4.46191C84.5033 4.59863 84.3415 4.66699 84.1501 4.66699C83.9587 4.66699 83.7946 4.59863 83.6579 4.46191C83.5212 4.3252 83.4529 4.16113 83.4529 3.96973C83.4529 3.77832 83.5189 3.61654 83.6511 3.48438C83.7878 3.34766 83.9542 3.2793 84.1501 3.2793ZM84.7175 6.55371V11.585C84.7175 11.9769 84.7448 12.2389 84.7995 12.3711C84.8588 12.4987 84.9431 12.5944 85.0525 12.6582C85.1664 12.722 85.3715 12.7539 85.6677 12.7539V13H82.6257V12.7539C82.931 12.7539 83.1361 12.7243 83.2409 12.665C83.3458 12.6058 83.4278 12.5078 83.487 12.3711C83.5508 12.2344 83.5827 11.9723 83.5827 11.585V9.17188C83.5827 8.49284 83.5622 8.05306 83.5212 7.85254C83.4893 7.70671 83.4392 7.60645 83.3708 7.55176C83.3025 7.49251 83.209 7.46289 83.0905 7.46289C82.9629 7.46289 82.808 7.49707 82.6257 7.56543L82.53 7.31934L84.4167 6.55371H84.7175ZM89.0963 6.55371C90.0442 6.55371 90.8053 6.91374 91.3795 7.63379C91.8672 8.24902 92.111 8.9554 92.111 9.75293C92.111 10.3135 91.9765 10.8809 91.7077 11.4551C91.4388 12.0293 91.0674 12.4622 90.5934 12.7539C90.124 13.0456 89.5999 13.1914 89.0211 13.1914C88.0778 13.1914 87.3281 12.8154 86.7721 12.0635C86.3027 11.43 86.068 10.7191 86.068 9.93066C86.068 9.35645 86.2093 8.78678 86.4918 8.22168C86.7789 7.65202 87.1549 7.23275 87.6198 6.96387C88.0846 6.69043 88.5768 6.55371 89.0963 6.55371ZM88.8844 6.99805C88.6429 6.99805 88.3991 7.07096 88.153 7.2168C87.9114 7.35807 87.7155 7.60872 87.5651 7.96875C87.4147 8.32878 87.3395 8.79134 87.3395 9.35645C87.3395 10.2679 87.5195 11.054 87.8795 11.7148C88.2441 12.3757 88.7226 12.7061 89.3151 12.7061C89.7571 12.7061 90.1217 12.5238 90.4088 12.1592C90.6959 11.7946 90.8395 11.168 90.8395 10.2793C90.8395 9.16732 90.6002 8.29232 90.1217 7.6543C89.7982 7.2168 89.3857 6.99805 88.8844 6.99805ZM94.439 7.87988C95.1727 6.99577 95.8723 6.55371 96.5377 6.55371C96.8795 6.55371 97.1734 6.6403 97.4195 6.81348C97.6656 6.9821 97.8616 7.26237 98.0074 7.6543C98.1076 7.92773 98.1578 8.34701 98.1578 8.91211V11.585C98.1578 11.9814 98.1897 12.2503 98.2535 12.3916C98.3036 12.5055 98.3834 12.5944 98.4927 12.6582C98.6067 12.722 98.814 12.7539 99.1148 12.7539V13H96.0181V12.7539H96.148C96.4397 12.7539 96.6425 12.7106 96.7564 12.624C96.8749 12.5329 96.9569 12.4007 97.0025 12.2275C97.0207 12.1592 97.0298 11.945 97.0298 11.585V9.02148C97.0298 8.45182 96.9547 8.03939 96.8043 7.78418C96.6584 7.52441 96.4101 7.39453 96.0591 7.39453C95.5168 7.39453 94.9768 7.69076 94.439 8.2832V11.585C94.439 12.0088 94.4641 12.2708 94.5142 12.3711C94.578 12.5033 94.6646 12.6012 94.774 12.665C94.8879 12.7243 95.1158 12.7539 95.4576 12.7539V13H92.3609V12.7539H92.4976C92.8166 12.7539 93.0308 12.6742 93.1402 12.5146C93.2541 12.3506 93.3111 12.0407 93.3111 11.585V9.26074C93.3111 8.50879 93.2929 8.05078 93.2564 7.88672C93.2245 7.72266 93.1721 7.611 93.0992 7.55176C93.0308 7.49251 92.9374 7.46289 92.8189 7.46289C92.6913 7.46289 92.5386 7.49707 92.3609 7.56543L92.2584 7.31934L94.1451 6.55371H94.439V7.87988Z" fill="#646464"/>
<rect x="1" y="44.5552" width="12.7986" height="28.4444" fill="#E7C19E"/>
<rect x="31.252" y="30.333" width="12.7986" height="42.6667" fill="#E7C19E"/>
<rect x="46.377" y="18.1426" width="12.7986" height="54.8571" fill="#E7C19E"/>
<rect x="16.126" y="37.4443" width="12.7986" height="35.5556" fill="#E7C19E"/>
<rect x="62.5" y="25.2544" width="12.4662" height="47.746" fill="#E7C19E"/>
<rect x="78.291" y="28.3018" width="12.4662" height="44.6984" fill="#E7C19E"/>
<rect x="94.9121" y="20.1748" width="12.4662" height="52.8254" fill="#E7C19E"/>
<path d="M126.256 30.5894V32.7109C126.256 33.1693 126.306 33.4539 126.406 33.5649C126.542 33.7225 126.748 33.8013 127.024 33.8013H127.303V34H124.183V33.8013H124.457C124.764 33.8013 124.985 33.701 125.117 33.5005C125.189 33.3895 125.225 33.1263 125.225 32.7109V28.0059C125.225 27.5475 125.176 27.2629 125.08 27.1519C124.94 26.9943 124.732 26.9155 124.457 26.9155H124.183V26.7168H126.852C127.504 26.7168 128.018 26.7848 128.394 26.9209C128.77 27.0534 129.086 27.279 129.344 27.5977C129.602 27.9163 129.731 28.2941 129.731 28.731C129.731 29.3254 129.534 29.8088 129.14 30.1812C128.75 30.5535 128.197 30.7397 127.48 30.7397C127.305 30.7397 127.115 30.7272 126.911 30.7021C126.707 30.6771 126.489 30.6395 126.256 30.5894ZM126.256 30.2832C126.446 30.319 126.614 30.3459 126.761 30.3638C126.908 30.3817 127.033 30.3906 127.137 30.3906C127.509 30.3906 127.83 30.2474 128.098 29.9609C128.37 29.6709 128.506 29.2967 128.506 28.8384C128.506 28.5233 128.442 28.2314 128.313 27.9629C128.184 27.6908 128.001 27.4884 127.765 27.356C127.529 27.2199 127.26 27.1519 126.959 27.1519C126.777 27.1519 126.542 27.1859 126.256 27.2539V30.2832ZM132.543 28.9351C133.288 28.9351 133.886 29.2179 134.337 29.7837C134.72 30.2671 134.912 30.8221 134.912 31.4487C134.912 31.8892 134.806 32.335 134.595 32.7861C134.384 33.2373 134.092 33.5775 133.719 33.8066C133.351 34.0358 132.939 34.1504 132.484 34.1504C131.743 34.1504 131.154 33.855 130.717 33.2642C130.348 32.7664 130.164 32.2078 130.164 31.5884C130.164 31.1372 130.275 30.6896 130.497 30.2456C130.722 29.798 131.018 29.4686 131.383 29.2573C131.748 29.0425 132.135 28.9351 132.543 28.9351ZM132.377 29.2842C132.187 29.2842 131.995 29.3415 131.802 29.4561C131.612 29.5671 131.458 29.764 131.34 30.0469C131.222 30.3298 131.163 30.6932 131.163 31.1372C131.163 31.8534 131.304 32.471 131.587 32.9902C131.873 33.5094 132.249 33.769 132.715 33.769C133.062 33.769 133.349 33.6258 133.574 33.3394C133.8 33.0529 133.913 32.5605 133.913 31.8623C133.913 30.9886 133.725 30.3011 133.349 29.7998C133.094 29.4561 132.77 29.2842 132.377 29.2842ZM136.746 28.9351V30.0415C137.158 29.3039 137.581 28.9351 138.014 28.9351C138.211 28.9351 138.374 28.9959 138.503 29.1177C138.632 29.2358 138.696 29.3737 138.696 29.5312C138.696 29.6709 138.649 29.7891 138.556 29.8857C138.463 29.9824 138.352 30.0308 138.223 30.0308C138.098 30.0308 137.957 29.9699 137.799 29.8481C137.645 29.7228 137.53 29.6602 137.455 29.6602C137.391 29.6602 137.321 29.696 137.246 29.7676C137.085 29.9144 136.918 30.1561 136.746 30.4927V32.8506C136.746 33.1227 136.78 33.3286 136.848 33.4683C136.895 33.5649 136.977 33.6455 137.095 33.71C137.214 33.7744 137.384 33.8066 137.606 33.8066V34H135.087V33.8066C135.337 33.8066 135.523 33.7673 135.645 33.6885C135.735 33.6312 135.797 33.5399 135.833 33.4146C135.851 33.3537 135.86 33.18 135.86 32.8936V30.9868C135.86 30.4139 135.847 30.0737 135.822 29.9663C135.801 29.8553 135.758 29.7747 135.694 29.7246C135.633 29.6745 135.556 29.6494 135.463 29.6494C135.352 29.6494 135.226 29.6763 135.087 29.73L135.033 29.5366L136.521 28.9351H136.746ZM140.069 27.4634V29.0801H141.218V29.4561H140.069V32.6465C140.069 32.9652 140.113 33.18 140.203 33.291C140.296 33.402 140.414 33.4575 140.557 33.4575C140.676 33.4575 140.79 33.4217 140.901 33.3501C141.012 33.2749 141.098 33.1657 141.159 33.0225H141.368C141.243 33.3734 141.066 33.6383 140.837 33.8174C140.607 33.9928 140.371 34.0806 140.128 34.0806C139.963 34.0806 139.802 34.0358 139.644 33.9463C139.487 33.8532 139.37 33.7225 139.295 33.5542C139.22 33.3823 139.182 33.1191 139.182 32.7646V29.4561H138.404V29.2788C138.6 29.2 138.801 29.0675 139.005 28.8813C139.213 28.6916 139.397 28.4678 139.558 28.21C139.641 28.0739 139.755 27.825 139.902 27.4634H140.069ZM143.294 29.4668V32.7002C143.294 33.1585 143.344 33.4486 143.445 33.5703C143.577 33.7279 143.754 33.8066 143.976 33.8066H144.422V34H141.484V33.8066H141.704C141.848 33.8066 141.978 33.7708 142.097 33.6992C142.215 33.6276 142.295 33.5309 142.338 33.4092C142.385 33.2874 142.408 33.0511 142.408 32.7002V29.4668H141.452V29.0801H142.408V28.7578C142.408 28.2673 142.487 27.8519 142.644 27.5117C142.802 27.1715 143.042 26.8976 143.364 26.6899C143.69 26.4787 144.055 26.373 144.46 26.373C144.836 26.373 145.181 26.4948 145.496 26.7383C145.704 26.8994 145.808 27.0802 145.808 27.2808C145.808 27.3882 145.761 27.4902 145.668 27.5869C145.575 27.68 145.475 27.7266 145.368 27.7266C145.285 27.7266 145.197 27.6979 145.104 27.6406C145.015 27.5798 144.904 27.4526 144.771 27.2593C144.639 27.0623 144.517 26.9299 144.406 26.8618C144.295 26.7938 144.172 26.7598 144.035 26.7598C143.871 26.7598 143.731 26.8045 143.617 26.894C143.502 26.98 143.42 27.116 143.369 27.3022C143.319 27.4849 143.294 27.9593 143.294 28.7256V29.0801H144.562V29.4668H143.294ZM147.111 28.9351C147.856 28.9351 148.454 29.2179 148.905 29.7837C149.288 30.2671 149.479 30.8221 149.479 31.4487C149.479 31.8892 149.374 32.335 149.163 32.7861C148.951 33.2373 148.659 33.5775 148.287 33.8066C147.918 34.0358 147.506 34.1504 147.052 34.1504C146.31 34.1504 145.721 33.855 145.285 33.2642C144.916 32.7664 144.731 32.2078 144.731 31.5884C144.731 31.1372 144.842 30.6896 145.064 30.2456C145.29 29.798 145.585 29.4686 145.951 29.2573C146.316 29.0425 146.703 28.9351 147.111 28.9351ZM146.944 29.2842C146.754 29.2842 146.563 29.3415 146.37 29.4561C146.18 29.5671 146.026 29.764 145.908 30.0469C145.789 30.3298 145.73 30.6932 145.73 31.1372C145.73 31.8534 145.872 32.471 146.155 32.9902C146.441 33.5094 146.817 33.769 147.283 33.769C147.63 33.769 147.916 33.6258 148.142 33.3394C148.368 33.0529 148.48 32.5605 148.48 31.8623C148.48 30.9886 148.292 30.3011 147.916 29.7998C147.662 29.4561 147.338 29.2842 146.944 29.2842ZM151.566 26.3623V32.8882C151.566 33.1961 151.588 33.4002 151.631 33.5005C151.677 33.6007 151.747 33.6777 151.84 33.7314C151.933 33.7816 152.107 33.8066 152.361 33.8066V34H149.95V33.8066C150.175 33.8066 150.329 33.7834 150.412 33.7368C150.494 33.6903 150.558 33.6133 150.605 33.5059C150.652 33.3984 150.675 33.1925 150.675 32.8882V28.4194C150.675 27.8644 150.662 27.5243 150.637 27.3989C150.612 27.27 150.571 27.1823 150.514 27.1357C150.46 27.0892 150.39 27.0659 150.304 27.0659C150.211 27.0659 150.093 27.0946 149.95 27.1519L149.858 26.9639L151.325 26.3623H151.566ZM153.857 26.3623C154.008 26.3623 154.135 26.416 154.239 26.5234C154.346 26.6273 154.4 26.7544 154.4 26.9048C154.4 27.0552 154.346 27.1841 154.239 27.2915C154.135 27.3989 154.008 27.4526 153.857 27.4526C153.707 27.4526 153.578 27.3989 153.471 27.2915C153.363 27.1841 153.31 27.0552 153.31 26.9048C153.31 26.7544 153.362 26.6273 153.465 26.5234C153.573 26.416 153.704 26.3623 153.857 26.3623ZM154.303 28.9351V32.8882C154.303 33.1961 154.325 33.402 154.368 33.5059C154.414 33.6061 154.481 33.6813 154.566 33.7314C154.656 33.7816 154.817 33.8066 155.05 33.8066V34H152.66V33.8066C152.9 33.8066 153.061 33.7834 153.143 33.7368C153.225 33.6903 153.29 33.6133 153.336 33.5059C153.387 33.3984 153.412 33.1925 153.412 32.8882V30.9922C153.412 30.4587 153.396 30.1131 153.363 29.9556C153.338 29.841 153.299 29.7622 153.245 29.7192C153.191 29.6727 153.118 29.6494 153.025 29.6494C152.925 29.6494 152.803 29.6763 152.66 29.73L152.585 29.5366L154.067 28.9351H154.303ZM157.744 28.9351C158.489 28.9351 159.087 29.2179 159.538 29.7837C159.921 30.2671 160.112 30.8221 160.112 31.4487C160.112 31.8892 160.007 32.335 159.796 32.7861C159.584 33.2373 159.292 33.5775 158.92 33.8066C158.551 34.0358 158.139 34.1504 157.685 34.1504C156.943 34.1504 156.354 33.855 155.918 33.2642C155.549 32.7664 155.364 32.2078 155.364 31.5884C155.364 31.1372 155.475 30.6896 155.697 30.2456C155.923 29.798 156.218 29.4686 156.584 29.2573C156.949 29.0425 157.336 28.9351 157.744 28.9351ZM157.577 29.2842C157.388 29.2842 157.196 29.3415 157.003 29.4561C156.813 29.5671 156.659 29.764 156.541 30.0469C156.423 30.3298 156.363 30.6932 156.363 31.1372C156.363 31.8534 156.505 32.471 156.788 32.9902C157.074 33.5094 157.45 33.769 157.916 33.769C158.263 33.769 158.549 33.6258 158.775 33.3394C159.001 33.0529 159.113 32.5605 159.113 31.8623C159.113 30.9886 158.925 30.3011 158.549 29.7998C158.295 29.4561 157.971 29.2842 157.577 29.2842ZM162.675 29.0801H164.99V29.2788H164.84C164.7 29.2788 164.593 29.3128 164.517 29.3809C164.446 29.4489 164.41 29.5402 164.41 29.6548C164.41 29.7801 164.448 29.9287 164.523 30.1006L165.667 32.8184L166.816 29.9985C166.899 29.798 166.94 29.6458 166.94 29.542C166.94 29.4919 166.925 29.4507 166.897 29.4185C166.857 29.3647 166.807 29.3289 166.746 29.311C166.686 29.2896 166.562 29.2788 166.376 29.2788V29.0801H167.982V29.2788C167.796 29.2931 167.667 29.3307 167.595 29.3916C167.47 29.499 167.357 29.6781 167.257 29.9287L165.511 34.1504H165.291L163.534 29.9985C163.456 29.8052 163.381 29.6673 163.309 29.585C163.237 29.499 163.146 29.4274 163.035 29.3701C162.974 29.3379 162.854 29.3075 162.675 29.2788V29.0801ZM170.885 33.291C170.38 33.6813 170.063 33.9069 169.934 33.9678C169.741 34.0573 169.535 34.1021 169.317 34.1021C168.977 34.1021 168.696 33.9857 168.474 33.7529C168.255 33.5202 168.146 33.214 168.146 32.8345C168.146 32.5946 168.2 32.3869 168.307 32.2114C168.454 31.9679 168.708 31.7388 169.07 31.5239C169.435 31.3091 170.04 31.0477 170.885 30.7397V30.5464C170.885 30.0558 170.806 29.7192 170.649 29.5366C170.495 29.354 170.269 29.2627 169.972 29.2627C169.746 29.2627 169.567 29.3236 169.435 29.4453C169.299 29.5671 169.231 29.7067 169.231 29.8643L169.242 30.1758C169.242 30.3405 169.199 30.4676 169.113 30.5571C169.03 30.6466 168.921 30.6914 168.785 30.6914C168.653 30.6914 168.543 30.6449 168.457 30.5518C168.375 30.4587 168.334 30.3315 168.334 30.1704C168.334 29.8625 168.491 29.5796 168.807 29.3218C169.122 29.064 169.564 28.9351 170.133 28.9351C170.57 28.9351 170.928 29.0085 171.207 29.1553C171.419 29.2663 171.574 29.4399 171.675 29.6763C171.739 29.8302 171.771 30.1453 171.771 30.6216V32.292C171.771 32.7611 171.78 33.0493 171.798 33.1567C171.816 33.2606 171.845 33.3304 171.884 33.3662C171.927 33.402 171.975 33.4199 172.029 33.4199C172.086 33.4199 172.137 33.4074 172.18 33.3823C172.255 33.3358 172.4 33.2051 172.615 32.9902V33.291C172.214 33.8281 171.83 34.0967 171.465 34.0967C171.29 34.0967 171.15 34.0358 171.046 33.9141C170.942 33.7923 170.889 33.5846 170.885 33.291ZM170.885 32.9419V31.0674C170.344 31.2822 169.995 31.4344 169.838 31.5239C169.555 31.6815 169.353 31.8462 169.231 32.0181C169.109 32.1899 169.048 32.3779 169.048 32.582C169.048 32.8398 169.125 33.0547 169.279 33.2266C169.433 33.3949 169.61 33.479 169.811 33.479C170.083 33.479 170.441 33.3 170.885 32.9419ZM174.347 26.3623V32.8882C174.347 33.1961 174.369 33.4002 174.412 33.5005C174.458 33.6007 174.528 33.6777 174.621 33.7314C174.714 33.7816 174.888 33.8066 175.142 33.8066V34H172.73V33.8066C172.956 33.8066 173.11 33.7834 173.192 33.7368C173.275 33.6903 173.339 33.6133 173.386 33.5059C173.432 33.3984 173.456 33.1925 173.456 32.8882V28.4194C173.456 27.8644 173.443 27.5243 173.418 27.3989C173.393 27.27 173.352 27.1823 173.294 27.1357C173.241 27.0892 173.171 27.0659 173.085 27.0659C172.992 27.0659 172.874 27.0946 172.73 27.1519L172.639 26.9639L174.105 26.3623H174.347ZM179.7 29.0801V32.061C179.7 32.6304 179.712 32.9795 179.737 33.1084C179.766 33.2337 179.809 33.3215 179.866 33.3716C179.927 33.4217 179.997 33.4468 180.076 33.4468C180.187 33.4468 180.312 33.4163 180.452 33.3555L180.527 33.5435L179.055 34.1504H178.814V33.1084C178.391 33.5667 178.069 33.855 177.847 33.9731C177.625 34.0913 177.39 34.1504 177.143 34.1504C176.867 34.1504 176.627 34.0716 176.423 33.9141C176.223 33.7529 176.083 33.547 176.004 33.2964C175.926 33.0457 175.886 32.6912 175.886 32.2329V30.0361C175.886 29.8034 175.861 29.6423 175.811 29.5527C175.761 29.4632 175.686 29.3952 175.585 29.3486C175.489 29.2985 175.312 29.2752 175.054 29.2788V29.0801H176.778V32.3726C176.778 32.8309 176.857 33.1317 177.014 33.2749C177.175 33.4181 177.369 33.4897 177.594 33.4897C177.748 33.4897 177.922 33.4414 178.115 33.3447C178.312 33.248 178.545 33.0636 178.814 32.7915V30.0039C178.814 29.7246 178.762 29.5366 178.658 29.4399C178.557 29.3397 178.346 29.286 178.024 29.2788V29.0801H179.7ZM183.344 33.291C182.839 33.6813 182.523 33.9069 182.394 33.9678C182.2 34.0573 181.994 34.1021 181.776 34.1021C181.436 34.1021 181.155 33.9857 180.933 33.7529C180.714 33.5202 180.605 33.214 180.605 32.8345C180.605 32.5946 180.659 32.3869 180.766 32.2114C180.913 31.9679 181.167 31.7388 181.529 31.5239C181.894 31.3091 182.499 31.0477 183.344 30.7397V30.5464C183.344 30.0558 183.266 29.7192 183.108 29.5366C182.954 29.354 182.728 29.2627 182.431 29.2627C182.206 29.2627 182.027 29.3236 181.894 29.4453C181.758 29.5671 181.69 29.7067 181.69 29.8643L181.701 30.1758C181.701 30.3405 181.658 30.4676 181.572 30.5571C181.49 30.6466 181.38 30.6914 181.244 30.6914C181.112 30.6914 181.003 30.6449 180.917 30.5518C180.834 30.4587 180.793 30.3315 180.793 30.1704C180.793 29.8625 180.951 29.5796 181.266 29.3218C181.581 29.064 182.023 28.9351 182.592 28.9351C183.029 28.9351 183.387 29.0085 183.667 29.1553C183.878 29.2663 184.034 29.4399 184.134 29.6763C184.198 29.8302 184.231 30.1453 184.231 30.6216V32.292C184.231 32.7611 184.24 33.0493 184.257 33.1567C184.275 33.2606 184.304 33.3304 184.343 33.3662C184.386 33.402 184.435 33.4199 184.488 33.4199C184.546 33.4199 184.596 33.4074 184.639 33.3823C184.714 33.3358 184.859 33.2051 185.074 32.9902V33.291C184.673 33.8281 184.29 34.0967 183.924 34.0967C183.749 34.0967 183.609 34.0358 183.505 33.9141C183.402 33.7923 183.348 33.5846 183.344 33.291ZM183.344 32.9419V31.0674C182.804 31.2822 182.455 31.4344 182.297 31.5239C182.014 31.6815 181.812 31.8462 181.69 32.0181C181.568 32.1899 181.507 32.3779 181.507 32.582C181.507 32.8398 181.584 33.0547 181.738 33.2266C181.892 33.3949 182.07 33.479 182.27 33.479C182.542 33.479 182.9 33.3 183.344 32.9419ZM186.543 27.4634V29.0801H187.693V29.4561H186.543V32.6465C186.543 32.9652 186.588 33.18 186.677 33.291C186.771 33.402 186.889 33.4575 187.032 33.4575C187.15 33.4575 187.265 33.4217 187.376 33.3501C187.487 33.2749 187.573 33.1657 187.633 33.0225H187.843C187.718 33.3734 187.54 33.6383 187.311 33.8174C187.082 33.9928 186.846 34.0806 186.602 34.0806C186.438 34.0806 186.276 34.0358 186.119 33.9463C185.961 33.8532 185.845 33.7225 185.77 33.5542C185.695 33.3823 185.657 33.1191 185.657 32.7646V29.4561H184.878V29.2788C185.075 29.2 185.276 29.0675 185.48 28.8813C185.687 28.6916 185.872 28.4678 186.033 28.21C186.115 28.0739 186.23 27.825 186.377 27.4634H186.543ZM189.097 26.3623C189.248 26.3623 189.375 26.416 189.479 26.5234C189.586 26.6273 189.64 26.7544 189.64 26.9048C189.64 27.0552 189.586 27.1841 189.479 27.2915C189.375 27.3989 189.248 27.4526 189.097 27.4526C188.947 27.4526 188.818 27.3989 188.711 27.2915C188.603 27.1841 188.55 27.0552 188.55 26.9048C188.55 26.7544 188.602 26.6273 188.705 26.5234C188.813 26.416 188.943 26.3623 189.097 26.3623ZM189.543 28.9351V32.8882C189.543 33.1961 189.565 33.402 189.608 33.5059C189.654 33.6061 189.72 33.6813 189.806 33.7314C189.896 33.7816 190.057 33.8066 190.29 33.8066V34H187.9V33.8066C188.14 33.8066 188.301 33.7834 188.383 33.7368C188.465 33.6903 188.53 33.6133 188.576 33.5059C188.627 33.3984 188.652 33.1925 188.652 32.8882V30.9922C188.652 30.4587 188.636 30.1131 188.603 29.9556C188.578 29.841 188.539 29.7622 188.485 29.7192C188.431 29.6727 188.358 29.6494 188.265 29.6494C188.165 29.6494 188.043 29.6763 187.9 29.73L187.824 29.5366L189.307 28.9351H189.543ZM192.984 28.9351C193.729 28.9351 194.327 29.2179 194.778 29.7837C195.161 30.2671 195.352 30.8221 195.352 31.4487C195.352 31.8892 195.247 32.335 195.036 32.7861C194.824 33.2373 194.532 33.5775 194.16 33.8066C193.791 34.0358 193.379 34.1504 192.925 34.1504C192.183 34.1504 191.594 33.855 191.158 33.2642C190.789 32.7664 190.604 32.2078 190.604 31.5884C190.604 31.1372 190.715 30.6896 190.937 30.2456C191.163 29.798 191.458 29.4686 191.824 29.2573C192.189 29.0425 192.576 28.9351 192.984 28.9351ZM192.817 29.2842C192.627 29.2842 192.436 29.3415 192.243 29.4561C192.053 29.5671 191.899 29.764 191.781 30.0469C191.662 30.3298 191.603 30.6932 191.603 31.1372C191.603 31.8534 191.745 32.471 192.028 32.9902C192.314 33.5094 192.69 33.769 193.156 33.769C193.503 33.769 193.789 33.6258 194.015 33.3394C194.241 33.0529 194.353 32.5605 194.353 31.8623C194.353 30.9886 194.165 30.3011 193.789 29.7998C193.535 29.4561 193.211 29.2842 192.817 29.2842ZM197.182 29.9771C197.758 29.2824 198.308 28.9351 198.831 28.9351C199.099 28.9351 199.33 29.0031 199.523 29.1392C199.717 29.2716 199.871 29.4919 199.985 29.7998C200.064 30.0146 200.103 30.3441 200.103 30.7881V32.8882C200.103 33.1997 200.129 33.411 200.179 33.522C200.218 33.6115 200.281 33.6813 200.367 33.7314C200.456 33.7816 200.619 33.8066 200.855 33.8066V34H198.422V33.8066H198.524C198.754 33.8066 198.913 33.7726 199.002 33.7046C199.095 33.633 199.16 33.5291 199.196 33.3931C199.21 33.3394 199.217 33.1711 199.217 32.8882V30.874C199.217 30.4264 199.158 30.1024 199.04 29.9019C198.925 29.6978 198.73 29.5957 198.455 29.5957C198.028 29.5957 197.604 29.8285 197.182 30.2939V32.8882C197.182 33.2212 197.201 33.4271 197.241 33.5059C197.291 33.6097 197.359 33.6867 197.445 33.7368C197.534 33.7834 197.713 33.8066 197.982 33.8066V34H195.549V33.8066H195.656C195.907 33.8066 196.075 33.744 196.161 33.6187C196.251 33.4897 196.295 33.2463 196.295 32.8882V31.062C196.295 30.4712 196.281 30.1113 196.252 29.9824C196.227 29.8535 196.186 29.7658 196.129 29.7192C196.075 29.6727 196.002 29.6494 195.909 29.6494C195.808 29.6494 195.688 29.6763 195.549 29.73L195.468 29.5366L196.951 28.9351H197.182V29.9771ZM207.009 26.3623C207.159 26.3623 207.286 26.416 207.39 26.5234C207.498 26.6273 207.551 26.7544 207.551 26.9048C207.551 27.0552 207.498 27.1841 207.39 27.2915C207.286 27.3989 207.159 27.4526 207.009 27.4526C206.859 27.4526 206.73 27.3989 206.622 27.2915C206.515 27.1841 206.461 27.0552 206.461 26.9048C206.461 26.7544 206.513 26.6273 206.617 26.5234C206.724 26.416 206.855 26.3623 207.009 26.3623ZM207.455 28.9351V32.8882C207.455 33.1961 207.476 33.402 207.519 33.5059C207.566 33.6061 207.632 33.6813 207.718 33.7314C207.807 33.7816 207.969 33.8066 208.201 33.8066V34H205.811V33.8066C206.051 33.8066 206.212 33.7834 206.295 33.7368C206.377 33.6903 206.441 33.6133 206.488 33.5059C206.538 33.3984 206.563 33.1925 206.563 32.8882V30.9922C206.563 30.4587 206.547 30.1131 206.515 29.9556C206.49 29.841 206.45 29.7622 206.397 29.7192C206.343 29.6727 206.27 29.6494 206.176 29.6494C206.076 29.6494 205.954 29.6763 205.811 29.73L205.736 29.5366L207.218 28.9351H207.455ZM211.669 28.9351V30.6108H211.491C211.355 30.0845 211.18 29.7264 210.965 29.5366C210.754 29.3468 210.483 29.252 210.154 29.252C209.903 29.252 209.701 29.3182 209.547 29.4507C209.393 29.5832 209.316 29.73 209.316 29.8911C209.316 30.0916 209.373 30.2635 209.488 30.4067C209.599 30.5535 209.825 30.7093 210.165 30.874L210.949 31.2554C211.676 31.6099 212.039 32.0771 212.039 32.6572C212.039 33.1048 211.869 33.4665 211.529 33.7422C211.192 34.0143 210.815 34.1504 210.396 34.1504C210.095 34.1504 209.751 34.0967 209.365 33.9893C209.246 33.9535 209.15 33.9355 209.074 33.9355C208.992 33.9355 208.928 33.9821 208.881 34.0752H208.704V32.3188H208.881C208.981 32.8201 209.173 33.1979 209.456 33.4521C209.739 33.7064 210.056 33.8335 210.407 33.8335C210.654 33.8335 210.854 33.7619 211.008 33.6187C211.166 33.4718 211.244 33.2964 211.244 33.0923C211.244 32.8452 211.157 32.6375 210.981 32.4692C210.809 32.3009 210.464 32.0879 209.945 31.8301C209.425 31.5723 209.085 31.3395 208.924 31.1318C208.763 30.9277 208.682 30.6699 208.682 30.3584C208.682 29.9538 208.82 29.6154 209.096 29.3433C209.375 29.0711 209.735 28.9351 210.176 28.9351C210.369 28.9351 210.603 28.9762 210.879 29.0586C211.062 29.1123 211.184 29.1392 211.244 29.1392C211.302 29.1392 211.346 29.1266 211.379 29.1016C211.411 29.0765 211.448 29.021 211.491 28.9351H211.669ZM127.819 46.4468C127.579 46.6974 127.344 46.8783 127.115 46.9893C126.886 47.0967 126.639 47.1504 126.374 47.1504C125.837 47.1504 125.368 46.9266 124.967 46.479C124.566 46.0278 124.365 45.4495 124.365 44.7441C124.365 44.0387 124.587 43.3942 125.031 42.8105C125.475 42.2233 126.046 41.9297 126.745 41.9297C127.178 41.9297 127.536 42.0675 127.819 42.3433V41.4355C127.819 40.8734 127.805 40.5278 127.776 40.3989C127.751 40.27 127.71 40.1823 127.652 40.1357C127.595 40.0892 127.523 40.0659 127.438 40.0659C127.344 40.0659 127.221 40.0946 127.067 40.1519L126.997 39.9639L128.463 39.3623H128.705V45.0503C128.705 45.6268 128.718 45.9795 128.743 46.1084C128.771 46.2337 128.814 46.3215 128.872 46.3716C128.932 46.4217 129.002 46.4468 129.081 46.4468C129.178 46.4468 129.307 46.4163 129.468 46.3555L129.527 46.5435L128.066 47.1504H127.819V46.4468ZM127.819 46.0708V43.5356C127.797 43.2922 127.733 43.0701 127.625 42.8696C127.518 42.6691 127.375 42.5187 127.196 42.4185C127.02 42.3146 126.848 42.2627 126.68 42.2627C126.365 42.2627 126.084 42.4041 125.837 42.687C125.511 43.0594 125.348 43.6037 125.348 44.3198C125.348 45.0431 125.506 45.5981 125.821 45.9849C126.136 46.368 126.487 46.5596 126.874 46.5596C127.199 46.5596 127.514 46.3966 127.819 46.0708ZM130.341 43.9331C130.337 44.6636 130.515 45.2365 130.873 45.6519C131.231 46.0672 131.651 46.2749 132.135 46.2749C132.457 46.2749 132.736 46.1872 132.973 46.0117C133.213 45.8327 133.413 45.5283 133.574 45.0986L133.741 45.2061C133.666 45.6966 133.447 46.1442 133.086 46.5488C132.724 46.9499 132.271 47.1504 131.727 47.1504C131.136 47.1504 130.629 46.9212 130.207 46.4629C129.788 46.001 129.578 45.3815 129.578 44.6045C129.578 43.763 129.793 43.1077 130.223 42.6387C130.656 42.166 131.198 41.9297 131.85 41.9297C132.402 41.9297 132.855 42.1123 133.209 42.4775C133.564 42.8392 133.741 43.3244 133.741 43.9331H130.341ZM130.341 43.6216H132.618C132.6 43.3065 132.563 43.0845 132.505 42.9556C132.416 42.755 132.282 42.5975 132.103 42.4829C131.927 42.3683 131.743 42.311 131.549 42.311C131.252 42.311 130.985 42.4274 130.749 42.6602C130.516 42.8893 130.38 43.2098 130.341 43.6216ZM135.5 40.4634V42.0801H136.65V42.4561H135.5V45.6465C135.5 45.9652 135.545 46.18 135.634 46.291C135.728 46.402 135.846 46.4575 135.989 46.4575C136.107 46.4575 136.222 46.4217 136.333 46.3501C136.444 46.2749 136.53 46.1657 136.59 46.0225H136.8C136.675 46.3734 136.497 46.6383 136.268 46.8174C136.039 46.9928 135.803 47.0806 135.559 47.0806C135.395 47.0806 135.233 47.0358 135.076 46.9463C134.918 46.8532 134.802 46.7225 134.727 46.5542C134.652 46.3823 134.614 46.1191 134.614 45.7646V42.4561H133.835V42.2788C134.032 42.2 134.233 42.0675 134.437 41.8813C134.644 41.6916 134.829 41.4678 134.99 41.21C135.072 41.0739 135.187 40.825 135.334 40.4634H135.5ZM137.63 43.9331C137.627 44.6636 137.804 45.2365 138.162 45.6519C138.52 46.0672 138.941 46.2749 139.424 46.2749C139.746 46.2749 140.026 46.1872 140.262 46.0117C140.502 45.8327 140.702 45.5283 140.864 45.0986L141.03 45.2061C140.955 45.6966 140.736 46.1442 140.375 46.5488C140.013 46.9499 139.56 47.1504 139.016 47.1504C138.425 47.1504 137.918 46.9212 137.496 46.4629C137.077 46.001 136.867 45.3815 136.867 44.6045C136.867 43.763 137.082 43.1077 137.512 42.6387C137.945 42.166 138.488 41.9297 139.139 41.9297C139.691 41.9297 140.144 42.1123 140.498 42.4775C140.853 42.8392 141.03 43.3244 141.03 43.9331H137.63ZM137.63 43.6216H139.907C139.89 43.3065 139.852 43.0845 139.795 42.9556C139.705 42.755 139.571 42.5975 139.392 42.4829C139.216 42.3683 139.032 42.311 138.839 42.311C138.541 42.311 138.275 42.4274 138.038 42.6602C137.806 42.8893 137.67 43.2098 137.63 43.6216ZM142.8 41.9351V43.0415C143.212 42.3039 143.634 41.9351 144.068 41.9351C144.265 41.9351 144.428 41.9959 144.556 42.1177C144.685 42.2358 144.75 42.3737 144.75 42.5312C144.75 42.6709 144.703 42.7891 144.61 42.8857C144.517 42.9824 144.406 43.0308 144.277 43.0308C144.152 43.0308 144.01 42.9699 143.853 42.8481C143.699 42.7228 143.584 42.6602 143.509 42.6602C143.445 42.6602 143.375 42.696 143.3 42.7676C143.138 42.9144 142.972 43.1561 142.8 43.4927V45.8506C142.8 46.1227 142.834 46.3286 142.902 46.4683C142.949 46.5649 143.031 46.6455 143.149 46.71C143.267 46.7744 143.437 46.8066 143.659 46.8066V47H141.14V46.8066C141.391 46.8066 141.577 46.7673 141.699 46.6885C141.789 46.6312 141.851 46.5399 141.887 46.4146C141.905 46.3537 141.914 46.18 141.914 45.8936V43.9868C141.914 43.4139 141.901 43.0737 141.876 42.9663C141.855 42.8553 141.812 42.7747 141.747 42.7246C141.687 42.6745 141.61 42.6494 141.516 42.6494C141.405 42.6494 141.28 42.6763 141.14 42.73L141.087 42.5366L142.575 41.9351H142.8ZM146.155 42.9824C146.513 42.6243 146.724 42.4185 146.788 42.3647C146.95 42.2287 147.123 42.123 147.309 42.0479C147.496 41.9727 147.68 41.9351 147.863 41.9351C148.171 41.9351 148.436 42.0246 148.658 42.2036C148.88 42.3826 149.028 42.6423 149.103 42.9824C149.472 42.5527 149.784 42.2716 150.038 42.1392C150.292 42.0031 150.554 41.9351 150.822 41.9351C151.084 41.9351 151.315 42.0031 151.515 42.1392C151.719 42.2716 151.88 42.4901 151.998 42.7944C152.077 43.0021 152.117 43.328 152.117 43.772V45.8882C152.117 46.1961 152.14 46.4074 152.186 46.522C152.222 46.6007 152.288 46.6688 152.385 46.7261C152.482 46.7798 152.639 46.8066 152.858 46.8066V47H150.43V46.8066H150.532C150.743 46.8066 150.908 46.7655 151.026 46.6831C151.109 46.6258 151.168 46.5345 151.204 46.4092C151.218 46.3483 151.225 46.1746 151.225 45.8882V43.772C151.225 43.3709 151.177 43.0881 151.08 42.9233C150.94 42.6942 150.717 42.5796 150.409 42.5796C150.219 42.5796 150.027 42.6279 149.834 42.7246C149.644 42.8177 149.413 42.9932 149.141 43.251L149.13 43.3101L149.141 43.541V45.8882C149.141 46.2248 149.159 46.4342 149.195 46.5166C149.234 46.599 149.306 46.6688 149.41 46.7261C149.513 46.7798 149.691 46.8066 149.941 46.8066V47H147.454V46.8066C147.727 46.8066 147.913 46.7744 148.013 46.71C148.117 46.6455 148.189 46.5488 148.228 46.4199C148.246 46.359 148.255 46.1818 148.255 45.8882V43.772C148.255 43.3709 148.196 43.0827 148.078 42.9072C147.92 42.6781 147.7 42.5635 147.417 42.5635C147.224 42.5635 147.032 42.6154 146.842 42.7192C146.545 42.8768 146.316 43.054 146.155 43.251V45.8882C146.155 46.2104 146.176 46.4199 146.219 46.5166C146.266 46.6133 146.332 46.6867 146.418 46.7368C146.507 46.7834 146.686 46.8066 146.955 46.8066V47H144.522V46.8066C144.747 46.8066 144.905 46.7834 144.995 46.7368C145.084 46.6867 145.152 46.6097 145.199 46.5059C145.245 46.3984 145.268 46.1925 145.268 45.8882V44.0083C145.268 43.4676 145.252 43.1185 145.22 42.9609C145.195 42.8428 145.156 42.7622 145.102 42.7192C145.048 42.6727 144.975 42.6494 144.882 42.6494C144.781 42.6494 144.662 42.6763 144.522 42.73L144.441 42.5366L145.924 41.9351H146.155V42.9824ZM154.177 39.3623C154.327 39.3623 154.454 39.416 154.558 39.5234C154.666 39.6273 154.719 39.7544 154.719 39.9048C154.719 40.0552 154.666 40.1841 154.558 40.2915C154.454 40.3989 154.327 40.4526 154.177 40.4526C154.026 40.4526 153.897 40.3989 153.79 40.2915C153.683 40.1841 153.629 40.0552 153.629 39.9048C153.629 39.7544 153.681 39.6273 153.785 39.5234C153.892 39.416 154.023 39.3623 154.177 39.3623ZM154.623 41.9351V45.8882C154.623 46.1961 154.644 46.402 154.687 46.5059C154.734 46.6061 154.8 46.6813 154.886 46.7314C154.975 46.7816 155.136 46.8066 155.369 46.8066V47H152.979V46.8066C153.219 46.8066 153.38 46.7834 153.462 46.7368C153.545 46.6903 153.609 46.6133 153.656 46.5059C153.706 46.3984 153.731 46.1925 153.731 45.8882V43.9922C153.731 43.4587 153.715 43.1131 153.683 42.9556C153.658 42.841 153.618 42.7622 153.564 42.7192C153.511 42.6727 153.437 42.6494 153.344 42.6494C153.244 42.6494 153.122 42.6763 152.979 42.73L152.904 42.5366L154.386 41.9351H154.623ZM157.091 42.9771C157.667 42.2824 158.217 41.9351 158.74 41.9351C159.008 41.9351 159.239 42.0031 159.433 42.1392C159.626 42.2716 159.78 42.4919 159.895 42.7998C159.973 43.0146 160.013 43.3441 160.013 43.7881V45.8882C160.013 46.1997 160.038 46.411 160.088 46.522C160.127 46.6115 160.19 46.6813 160.276 46.7314C160.365 46.7816 160.528 46.8066 160.765 46.8066V47H158.332V46.8066H158.434C158.663 46.8066 158.822 46.7726 158.912 46.7046C159.005 46.633 159.069 46.5291 159.105 46.3931C159.119 46.3394 159.127 46.1711 159.127 45.8882V43.874C159.127 43.4264 159.067 43.1024 158.949 42.9019C158.835 42.6978 158.64 42.5957 158.364 42.5957C157.938 42.5957 157.513 42.8285 157.091 43.2939V45.8882C157.091 46.2212 157.111 46.4271 157.15 46.5059C157.2 46.6097 157.268 46.6867 157.354 46.7368C157.444 46.7834 157.623 46.8066 157.891 46.8066V47H155.458V46.8066H155.565C155.816 46.8066 155.984 46.744 156.07 46.6187C156.16 46.4897 156.205 46.2463 156.205 45.8882V44.062C156.205 43.4712 156.19 43.1113 156.162 42.9824C156.137 42.8535 156.095 42.7658 156.038 42.7192C155.984 42.6727 155.911 42.6494 155.818 42.6494C155.718 42.6494 155.598 42.6763 155.458 42.73L155.378 42.5366L156.86 41.9351H157.091V42.9771ZM161.654 43.9331C161.65 44.6636 161.828 45.2365 162.186 45.6519C162.544 46.0672 162.964 46.2749 163.448 46.2749C163.77 46.2749 164.049 46.1872 164.286 46.0117C164.526 45.8327 164.726 45.5283 164.887 45.0986L165.054 45.2061C164.979 45.6966 164.76 46.1442 164.399 46.5488C164.037 46.9499 163.584 47.1504 163.04 47.1504C162.449 47.1504 161.942 46.9212 161.52 46.4629C161.101 46.001 160.891 45.3815 160.891 44.6045C160.891 43.763 161.106 43.1077 161.536 42.6387C161.969 42.166 162.512 41.9297 163.163 41.9297C163.715 41.9297 164.168 42.1123 164.522 42.4775C164.877 42.8392 165.054 43.3244 165.054 43.9331H161.654ZM161.654 43.6216H163.931C163.913 43.3065 163.876 43.0845 163.818 42.9556C163.729 42.755 163.595 42.5975 163.416 42.4829C163.24 42.3683 163.056 42.311 162.862 42.311C162.565 42.311 162.298 42.4274 162.062 42.6602C161.829 42.8893 161.693 43.2098 161.654 43.6216ZM168.86 46.4468C168.62 46.6974 168.385 46.8783 168.156 46.9893C167.927 47.0967 167.68 47.1504 167.415 47.1504C166.878 47.1504 166.409 46.9266 166.008 46.479C165.606 46.0278 165.406 45.4495 165.406 44.7441C165.406 44.0387 165.628 43.3942 166.072 42.8105C166.516 42.2233 167.087 41.9297 167.785 41.9297C168.219 41.9297 168.577 42.0675 168.86 42.3433V41.4355C168.86 40.8734 168.845 40.5278 168.817 40.3989C168.792 40.27 168.75 40.1823 168.693 40.1357C168.636 40.0892 168.564 40.0659 168.478 40.0659C168.385 40.0659 168.262 40.0946 168.108 40.1519L168.038 39.9639L169.504 39.3623H169.746V45.0503C169.746 45.6268 169.758 45.9795 169.783 46.1084C169.812 46.2337 169.855 46.3215 169.912 46.3716C169.973 46.4217 170.043 46.4468 170.122 46.4468C170.218 46.4468 170.347 46.4163 170.509 46.3555L170.568 46.5435L169.107 47.1504H168.86V46.4468ZM168.86 46.0708V43.5356C168.838 43.2922 168.774 43.0701 168.666 42.8696C168.559 42.6691 168.416 42.5187 168.237 42.4185C168.061 42.3146 167.889 42.2627 167.721 42.2627C167.406 42.2627 167.125 42.4041 166.878 42.687C166.552 43.0594 166.389 43.6037 166.389 44.3198C166.389 45.0431 166.546 45.5981 166.862 45.9849C167.177 46.368 167.528 46.5596 167.914 46.5596C168.24 46.5596 168.555 46.3966 168.86 46.0708ZM174.323 42.9287C174.799 42.2663 175.313 41.9351 175.864 41.9351C176.369 41.9351 176.809 42.1517 177.185 42.585C177.561 43.0146 177.749 43.6037 177.749 44.3521C177.749 45.2257 177.459 45.9294 176.879 46.4629C176.382 46.9212 175.827 47.1504 175.214 47.1504C174.928 47.1504 174.636 47.0985 174.339 46.9946C174.045 46.8908 173.744 46.735 173.436 46.5273V41.4302C173.436 40.8716 173.422 40.5278 173.393 40.3989C173.368 40.27 173.327 40.1823 173.27 40.1357C173.213 40.0892 173.141 40.0659 173.055 40.0659C172.955 40.0659 172.829 40.0946 172.679 40.1519L172.604 39.9639L174.081 39.3623H174.323V42.9287ZM174.323 43.2725V46.2158C174.505 46.3949 174.693 46.5309 174.887 46.624C175.084 46.7135 175.284 46.7583 175.488 46.7583C175.814 46.7583 176.117 46.5793 176.396 46.2212C176.679 45.8631 176.82 45.3421 176.82 44.6582C176.82 44.028 176.679 43.5446 176.396 43.208C176.117 42.8678 175.798 42.6978 175.44 42.6978C175.25 42.6978 175.06 42.7461 174.87 42.8428C174.727 42.9144 174.545 43.0576 174.323 43.2725ZM177.865 42.0801H180.159V42.2788H180.046C179.885 42.2788 179.763 42.3146 179.681 42.3862C179.602 42.4543 179.562 42.5402 179.562 42.644C179.562 42.7837 179.622 42.9771 179.74 43.2241L180.937 45.7056L182.039 42.9878C182.099 42.841 182.13 42.696 182.13 42.5527C182.13 42.4883 182.117 42.4399 182.092 42.4077C182.064 42.3683 182.019 42.3379 181.958 42.3164C181.897 42.2913 181.79 42.2788 181.636 42.2788V42.0801H183.236V42.2788C183.104 42.2931 183.002 42.3218 182.93 42.3647C182.859 42.4077 182.78 42.4883 182.694 42.6064C182.662 42.6566 182.601 42.7944 182.511 43.02L180.508 47.9292C180.314 48.4054 180.06 48.7653 179.745 49.0088C179.434 49.2523 179.133 49.374 178.843 49.374C178.631 49.374 178.458 49.3132 178.322 49.1914C178.186 49.0697 178.118 48.93 178.118 48.7725C178.118 48.6221 178.166 48.5003 178.263 48.4072C178.363 48.3177 178.499 48.2729 178.671 48.2729C178.789 48.2729 178.95 48.3123 179.154 48.3911C179.297 48.4448 179.387 48.4717 179.423 48.4717C179.53 48.4717 179.647 48.4162 179.772 48.3052C179.901 48.1942 180.03 47.9793 180.159 47.6606L180.508 46.8066L178.741 43.0952C178.687 42.9842 178.601 42.8464 178.483 42.6816C178.393 42.5563 178.32 42.4722 178.263 42.4292C178.18 42.3719 178.048 42.3218 177.865 42.2788V42.0801ZM187.163 40.4634V42.0801H188.313V42.4561H187.163V45.6465C187.163 45.9652 187.208 46.18 187.297 46.291C187.391 46.402 187.509 46.4575 187.652 46.4575C187.77 46.4575 187.885 46.4217 187.996 46.3501C188.107 46.2749 188.193 46.1657 188.254 46.0225H188.463C188.338 46.3734 188.16 46.6383 187.931 46.8174C187.702 46.9928 187.466 47.0806 187.222 47.0806C187.058 47.0806 186.896 47.0358 186.739 46.9463C186.581 46.8532 186.465 46.7225 186.39 46.5542C186.315 46.3823 186.277 46.1191 186.277 45.7646V42.4561H185.498V42.2788C185.695 42.2 185.896 42.0675 186.1 41.8813C186.307 41.6916 186.492 41.4678 186.653 41.21C186.735 41.0739 186.85 40.825 186.997 40.4634H187.163ZM189.911 39.3623V42.9609C190.308 42.5241 190.623 42.2448 190.856 42.123C191.089 41.9977 191.322 41.9351 191.554 41.9351C191.834 41.9351 192.074 42.012 192.274 42.166C192.475 42.32 192.623 42.5617 192.72 42.8911C192.788 43.1203 192.822 43.5392 192.822 44.1479V45.8882C192.822 46.1997 192.847 46.4128 192.897 46.5273C192.933 46.6133 192.994 46.6813 193.08 46.7314C193.166 46.7816 193.323 46.8066 193.552 46.8066V47H191.135V46.8066H191.248C191.477 46.8066 191.637 46.7726 191.726 46.7046C191.816 46.633 191.878 46.5291 191.914 46.3931C191.925 46.3358 191.93 46.1675 191.93 45.8882V44.1479C191.93 43.6108 191.902 43.2581 191.844 43.0898C191.791 42.9215 191.703 42.7962 191.581 42.7139C191.46 42.6279 191.313 42.585 191.141 42.585C190.965 42.585 190.783 42.6315 190.593 42.7246C190.403 42.8177 190.176 43.0057 189.911 43.2886V45.8882C189.911 46.2248 189.929 46.4342 189.965 46.5166C190.004 46.599 190.074 46.6688 190.174 46.7261C190.278 46.7798 190.455 46.8066 190.706 46.8066V47H188.267V46.8066C188.486 46.8066 188.658 46.7726 188.783 46.7046C188.855 46.6688 188.912 46.6007 188.955 46.5005C188.998 46.4002 189.019 46.1961 189.019 45.8882V41.4355C189.019 40.8734 189.005 40.5278 188.976 40.3989C188.951 40.27 188.91 40.1823 188.853 40.1357C188.799 40.0892 188.726 40.0659 188.633 40.0659C188.557 40.0659 188.436 40.0946 188.267 40.1519L188.192 39.9639L189.664 39.3623H189.911ZM194.463 43.9331C194.46 44.6636 194.637 45.2365 194.995 45.6519C195.353 46.0672 195.774 46.2749 196.257 46.2749C196.579 46.2749 196.859 46.1872 197.095 46.0117C197.335 45.8327 197.535 45.5283 197.697 45.0986L197.863 45.2061C197.788 45.6966 197.569 46.1442 197.208 46.5488C196.846 46.9499 196.393 47.1504 195.849 47.1504C195.258 47.1504 194.751 46.9212 194.329 46.4629C193.91 46.001 193.7 45.3815 193.7 44.6045C193.7 43.763 193.915 43.1077 194.345 42.6387C194.778 42.166 195.321 41.9297 195.972 41.9297C196.524 41.9297 196.977 42.1123 197.331 42.4775C197.686 42.8392 197.863 43.3244 197.863 43.9331H194.463ZM194.463 43.6216H196.741C196.723 43.3065 196.685 43.0845 196.628 42.9556C196.538 42.755 196.404 42.5975 196.225 42.4829C196.049 42.3683 195.865 42.311 195.672 42.311C195.374 42.311 195.108 42.4274 194.871 42.6602C194.639 42.8893 194.503 43.2098 194.463 43.6216ZM127.523 54.9351V56.6108H127.346C127.21 56.0845 127.035 55.7264 126.82 55.5366C126.609 55.3468 126.338 55.252 126.009 55.252C125.758 55.252 125.556 55.3182 125.402 55.4507C125.248 55.5832 125.171 55.73 125.171 55.8911C125.171 56.0916 125.228 56.2635 125.343 56.4067C125.454 56.5535 125.679 56.7093 126.02 56.874L126.804 57.2554C127.531 57.6099 127.894 58.0771 127.894 58.6572C127.894 59.1048 127.724 59.4665 127.384 59.7422C127.047 60.0143 126.669 60.1504 126.25 60.1504C125.95 60.1504 125.606 60.0967 125.219 59.9893C125.101 59.9535 125.004 59.9355 124.929 59.9355C124.847 59.9355 124.782 59.9821 124.736 60.0752H124.559V58.3188H124.736C124.836 58.8201 125.028 59.1979 125.311 59.4521C125.593 59.7064 125.91 59.8335 126.261 59.8335C126.508 59.8335 126.709 59.7619 126.863 59.6187C127.02 59.4718 127.099 59.2964 127.099 59.0923C127.099 58.8452 127.011 58.6375 126.836 58.4692C126.664 58.3009 126.319 58.0879 125.799 57.8301C125.28 57.5723 124.94 57.3395 124.779 57.1318C124.618 56.9277 124.537 56.6699 124.537 56.3584C124.537 55.9538 124.675 55.6154 124.951 55.3433C125.23 55.0711 125.59 54.9351 126.03 54.9351C126.224 54.9351 126.458 54.9762 126.734 55.0586C126.917 55.1123 127.038 55.1392 127.099 55.1392C127.156 55.1392 127.201 55.1266 127.233 55.1016C127.266 55.0765 127.303 55.021 127.346 54.9351H127.523ZM127.945 55.5688L129.46 54.9565H129.664V56.106C129.918 55.6727 130.173 55.3701 130.427 55.1982C130.685 55.0228 130.955 54.9351 131.238 54.9351C131.732 54.9351 132.144 55.1284 132.473 55.5151C132.878 55.9878 133.08 56.6037 133.08 57.3628C133.08 58.2114 132.837 58.9132 132.35 59.4683C131.949 59.923 131.444 60.1504 130.835 60.1504C130.57 60.1504 130.341 60.1128 130.148 60.0376C130.004 59.9839 129.843 59.8765 129.664 59.7153V61.2139C129.664 61.5505 129.684 61.7635 129.723 61.853C129.766 61.9461 129.838 62.0195 129.938 62.0732C130.042 62.127 130.228 62.1538 130.497 62.1538V62.3525H127.919V62.1538H128.053C128.25 62.1574 128.418 62.1198 128.558 62.041C128.626 62.0016 128.678 61.9372 128.713 61.8477C128.753 61.7617 128.773 61.5397 128.773 61.1816V56.5303C128.773 56.2116 128.758 56.0093 128.73 55.9233C128.701 55.8374 128.654 55.7729 128.59 55.73C128.529 55.687 128.445 55.6655 128.337 55.6655C128.252 55.6655 128.142 55.6906 128.01 55.7407L127.945 55.5688ZM129.664 56.4229V58.2598C129.664 58.6572 129.68 58.9186 129.712 59.0439C129.763 59.2516 129.884 59.4342 130.078 59.5918C130.275 59.7493 130.522 59.8281 130.819 59.8281C131.177 59.8281 131.467 59.6885 131.689 59.4092C131.979 59.0439 132.124 58.5301 132.124 57.8677C132.124 57.1157 131.959 56.5374 131.63 56.1328C131.401 55.8535 131.129 55.7139 130.814 55.7139C130.642 55.7139 130.472 55.7568 130.303 55.8428C130.174 55.9072 129.961 56.1006 129.664 56.4229ZM134.297 56.9331C134.293 57.6636 134.471 58.2365 134.829 58.6519C135.187 59.0672 135.608 59.2749 136.091 59.2749C136.413 59.2749 136.693 59.1872 136.929 59.0117C137.169 58.8327 137.369 58.5283 137.53 58.0986L137.697 58.2061C137.622 58.6966 137.403 59.1442 137.042 59.5488C136.68 59.9499 136.227 60.1504 135.683 60.1504C135.092 60.1504 134.585 59.9212 134.163 59.4629C133.744 59.001 133.534 58.3815 133.534 57.6045C133.534 56.763 133.749 56.1077 134.179 55.6387C134.612 55.166 135.155 54.9297 135.806 54.9297C136.358 54.9297 136.811 55.1123 137.165 55.4775C137.52 55.8392 137.697 56.3244 137.697 56.9331H134.297ZM134.297 56.6216H136.574C136.556 56.3065 136.519 56.0845 136.462 55.9556C136.372 55.755 136.238 55.5975 136.059 55.4829C135.883 55.3683 135.699 55.311 135.506 55.311C135.208 55.311 134.942 55.4274 134.705 55.6602C134.472 55.8893 134.336 56.2098 134.297 56.6216ZM142.206 58.1309C142.074 58.779 141.814 59.2785 141.427 59.6294C141.041 59.9767 140.613 60.1504 140.144 60.1504C139.585 60.1504 139.098 59.9159 138.683 59.4468C138.267 58.9777 138.06 58.3439 138.06 57.5454C138.06 56.772 138.289 56.1436 138.747 55.6602C139.209 55.1768 139.762 54.9351 140.407 54.9351C140.89 54.9351 141.288 55.064 141.599 55.3218C141.911 55.576 142.067 55.841 142.067 56.1167C142.067 56.2528 142.022 56.3638 141.932 56.4497C141.846 56.5321 141.725 56.5732 141.567 56.5732C141.356 56.5732 141.197 56.5052 141.089 56.3691C141.028 56.2939 140.987 56.1507 140.966 55.9395C140.948 55.7282 140.876 55.5671 140.751 55.4561C140.625 55.3486 140.452 55.2949 140.23 55.2949C139.872 55.2949 139.583 55.4274 139.365 55.6924C139.075 56.0433 138.93 56.507 138.93 57.0835C138.93 57.6707 139.073 58.1899 139.36 58.6411C139.65 59.0887 140.04 59.3125 140.531 59.3125C140.881 59.3125 141.197 59.1925 141.476 58.9526C141.673 58.7879 141.864 58.4889 142.051 58.0557L142.206 58.1309ZM143.837 52.3623C143.987 52.3623 144.114 52.416 144.218 52.5234C144.326 52.6273 144.379 52.7544 144.379 52.9048C144.379 53.0552 144.326 53.1841 144.218 53.2915C144.114 53.3989 143.987 53.4526 143.837 53.4526C143.686 53.4526 143.557 53.3989 143.45 53.2915C143.343 53.1841 143.289 53.0552 143.289 52.9048C143.289 52.7544 143.341 52.6273 143.445 52.5234C143.552 52.416 143.683 52.3623 143.837 52.3623ZM144.283 54.9351V58.8882C144.283 59.1961 144.304 59.402 144.347 59.5059C144.394 59.6061 144.46 59.6813 144.546 59.7314C144.635 59.7816 144.796 59.8066 145.029 59.8066V60H142.639V59.8066C142.879 59.8066 143.04 59.7834 143.122 59.7368C143.205 59.6903 143.269 59.6133 143.316 59.5059C143.366 59.3984 143.391 59.1925 143.391 58.8882V56.9922C143.391 56.4587 143.375 56.1131 143.343 55.9556C143.318 55.841 143.278 55.7622 143.224 55.7192C143.171 55.6727 143.097 55.6494 143.004 55.6494C142.904 55.6494 142.782 55.6763 142.639 55.73L142.564 55.5366L144.046 54.9351H144.283ZM147.24 55.4668V58.7002C147.24 59.1585 147.29 59.4486 147.39 59.5703C147.523 59.7279 147.7 59.8066 147.922 59.8066H148.368V60H145.43V59.8066H145.65C145.793 59.8066 145.924 59.7708 146.042 59.6992C146.16 59.6276 146.241 59.5309 146.284 59.4092C146.33 59.2874 146.353 59.0511 146.353 58.7002V55.4668H145.397V55.0801H146.353V54.7578C146.353 54.2673 146.432 53.8519 146.59 53.5117C146.747 53.1715 146.987 52.8976 147.309 52.6899C147.635 52.4787 148.001 52.373 148.405 52.373C148.781 52.373 149.127 52.4948 149.442 52.7383C149.649 52.8994 149.753 53.0802 149.753 53.2808C149.753 53.3882 149.707 53.4902 149.614 53.5869C149.521 53.68 149.42 53.7266 149.313 53.7266C149.231 53.7266 149.143 53.6979 149.05 53.6406C148.96 53.5798 148.849 53.4526 148.717 53.2593C148.584 53.0623 148.462 52.9299 148.351 52.8618C148.24 52.7938 148.117 52.7598 147.981 52.7598C147.816 52.7598 147.676 52.8045 147.562 52.894C147.447 52.98 147.365 53.116 147.315 53.3022C147.265 53.4849 147.24 53.9593 147.24 54.7256V55.0801H148.507V55.4668H147.24ZM149.901 52.3623C150.052 52.3623 150.179 52.416 150.283 52.5234C150.39 52.6273 150.444 52.7544 150.444 52.9048C150.444 53.0552 150.39 53.1841 150.283 53.2915C150.179 53.3989 150.052 53.4526 149.901 53.4526C149.751 53.4526 149.622 53.3989 149.515 53.2915C149.407 53.1841 149.353 53.0552 149.353 52.9048C149.353 52.7544 149.405 52.6273 149.509 52.5234C149.617 52.416 149.747 52.3623 149.901 52.3623ZM150.347 54.9351V58.8882C150.347 59.1961 150.369 59.402 150.412 59.5059C150.458 59.6061 150.524 59.6813 150.61 59.7314C150.7 59.7816 150.861 59.8066 151.094 59.8066V60H148.704V59.8066C148.944 59.8066 149.105 59.7834 149.187 59.7368C149.269 59.6903 149.334 59.6133 149.38 59.5059C149.43 59.3984 149.456 59.1925 149.456 58.8882V56.9922C149.456 56.4587 149.439 56.1131 149.407 55.9556C149.382 55.841 149.343 55.7622 149.289 55.7192C149.235 55.6727 149.162 55.6494 149.069 55.6494C148.969 55.6494 148.847 55.6763 148.704 55.73L148.628 55.5366L150.111 54.9351H150.347ZM155.56 58.1309C155.428 58.779 155.168 59.2785 154.781 59.6294C154.395 59.9767 153.967 60.1504 153.498 60.1504C152.939 60.1504 152.452 59.9159 152.037 59.4468C151.621 58.9777 151.414 58.3439 151.414 57.5454C151.414 56.772 151.643 56.1436 152.101 55.6602C152.563 55.1768 153.116 54.9351 153.761 54.9351C154.244 54.9351 154.642 55.064 154.953 55.3218C155.265 55.576 155.42 55.841 155.42 56.1167C155.42 56.2528 155.376 56.3638 155.286 56.4497C155.2 56.5321 155.079 56.5732 154.921 56.5732C154.71 56.5732 154.55 56.5052 154.443 56.3691C154.382 56.2939 154.341 56.1507 154.319 55.9395C154.301 55.7282 154.23 55.5671 154.105 55.4561C153.979 55.3486 153.806 55.2949 153.584 55.2949C153.225 55.2949 152.937 55.4274 152.719 55.6924C152.429 56.0433 152.284 56.507 152.284 57.0835C152.284 57.6707 152.427 58.1899 152.713 58.6411C153.003 59.0887 153.394 59.3125 153.884 59.3125C154.235 59.3125 154.55 59.1925 154.83 58.9526C155.027 58.7879 155.218 58.4889 155.404 58.0557L155.56 58.1309ZM158.727 59.291C158.222 59.6813 157.905 59.9069 157.776 59.9678C157.583 60.0573 157.377 60.1021 157.158 60.1021C156.818 60.1021 156.537 59.9857 156.315 59.7529C156.097 59.5202 155.987 59.214 155.987 58.8345C155.987 58.5946 156.041 58.3869 156.149 58.2114C156.295 57.9679 156.55 57.7388 156.911 57.5239C157.277 57.3091 157.882 57.0477 158.727 56.7397V56.5464C158.727 56.0558 158.648 55.7192 158.49 55.5366C158.336 55.354 158.111 55.2627 157.814 55.2627C157.588 55.2627 157.409 55.3236 157.277 55.4453C157.14 55.5671 157.072 55.7067 157.072 55.8643L157.083 56.1758C157.083 56.3405 157.04 56.4676 156.954 56.5571C156.872 56.6466 156.763 56.6914 156.627 56.6914C156.494 56.6914 156.385 56.6449 156.299 56.5518C156.217 56.4587 156.175 56.3315 156.175 56.1704C156.175 55.8625 156.333 55.5796 156.648 55.3218C156.963 55.064 157.405 54.9351 157.975 54.9351C158.412 54.9351 158.77 55.0085 159.049 55.1553C159.26 55.2663 159.416 55.4399 159.516 55.6763C159.581 55.8302 159.613 56.1453 159.613 56.6216V58.292C159.613 58.7611 159.622 59.0493 159.64 59.1567C159.658 59.2606 159.686 59.3304 159.726 59.3662C159.769 59.402 159.817 59.4199 159.871 59.4199C159.928 59.4199 159.978 59.4074 160.021 59.3823C160.096 59.3358 160.241 59.2051 160.456 58.9902V59.291C160.055 59.8281 159.672 60.0967 159.307 60.0967C159.131 60.0967 158.992 60.0358 158.888 59.9141C158.784 59.7923 158.73 59.5846 158.727 59.291ZM158.727 58.9419V57.0674C158.186 57.2822 157.837 57.4344 157.679 57.5239C157.396 57.6815 157.194 57.8462 157.072 58.0181C156.951 58.1899 156.89 58.3779 156.89 58.582C156.89 58.8398 156.967 59.0547 157.121 59.2266C157.275 59.3949 157.452 59.479 157.652 59.479C157.925 59.479 158.283 59.3 158.727 58.9419ZM161.926 53.4634V55.0801H163.075V55.4561H161.926V58.6465C161.926 58.9652 161.97 59.18 162.06 59.291C162.153 59.402 162.271 59.4575 162.414 59.4575C162.532 59.4575 162.647 59.4217 162.758 59.3501C162.869 59.2749 162.955 59.1657 163.016 59.0225H163.225C163.1 59.3734 162.923 59.6383 162.694 59.8174C162.464 59.9928 162.228 60.0806 161.985 60.0806C161.82 60.0806 161.659 60.0358 161.501 59.9463C161.344 59.8532 161.227 59.7225 161.152 59.5542C161.077 59.3823 161.039 59.1191 161.039 58.7646V55.4561H160.26V55.2788C160.457 55.2 160.658 55.0675 160.862 54.8813C161.07 54.6916 161.254 54.4678 161.415 54.21C161.498 54.0739 161.612 53.825 161.759 53.4634H161.926ZM164.48 52.3623C164.63 52.3623 164.757 52.416 164.861 52.5234C164.969 52.6273 165.022 52.7544 165.022 52.9048C165.022 53.0552 164.969 53.1841 164.861 53.2915C164.757 53.3989 164.63 53.4526 164.48 53.4526C164.329 53.4526 164.2 53.3989 164.093 53.2915C163.986 53.1841 163.932 53.0552 163.932 52.9048C163.932 52.7544 163.984 52.6273 164.088 52.5234C164.195 52.416 164.326 52.3623 164.48 52.3623ZM164.926 54.9351V58.8882C164.926 59.1961 164.947 59.402 164.99 59.5059C165.037 59.6061 165.103 59.6813 165.189 59.7314C165.278 59.7816 165.439 59.8066 165.672 59.8066V60H163.282V59.8066C163.522 59.8066 163.683 59.7834 163.765 59.7368C163.848 59.6903 163.912 59.6133 163.959 59.5059C164.009 59.3984 164.034 59.1925 164.034 58.8882V56.9922C164.034 56.4587 164.018 56.1131 163.986 55.9556C163.961 55.841 163.921 55.7622 163.867 55.7192C163.814 55.6727 163.74 55.6494 163.647 55.6494C163.547 55.6494 163.425 55.6763 163.282 55.73L163.207 55.5366L164.689 54.9351H164.926ZM168.366 54.9351C169.111 54.9351 169.709 55.2179 170.16 55.7837C170.543 56.2671 170.735 56.8221 170.735 57.4487C170.735 57.8892 170.629 58.335 170.418 58.7861C170.207 59.2373 169.915 59.5775 169.542 59.8066C169.174 60.0358 168.762 60.1504 168.307 60.1504C167.566 60.1504 166.977 59.855 166.54 59.2642C166.171 58.7664 165.987 58.2078 165.987 57.5884C165.987 57.1372 166.098 56.6896 166.32 56.2456C166.545 55.798 166.841 55.4686 167.206 55.2573C167.571 55.0425 167.958 54.9351 168.366 54.9351ZM168.2 55.2842C168.01 55.2842 167.818 55.3415 167.625 55.4561C167.435 55.5671 167.281 55.764 167.163 56.0469C167.045 56.3298 166.986 56.6932 166.986 57.1372C166.986 57.8534 167.127 58.471 167.41 58.9902C167.696 59.5094 168.072 59.769 168.538 59.769C168.885 59.769 169.172 59.6258 169.397 59.3394C169.623 59.0529 169.736 58.5605 169.736 57.8623C169.736 56.9886 169.548 56.3011 169.172 55.7998C168.918 55.4561 168.593 55.2842 168.2 55.2842ZM172.564 55.9771C173.14 55.2824 173.69 54.9351 174.213 54.9351C174.481 54.9351 174.712 55.0031 174.906 55.1392C175.099 55.2716 175.253 55.4919 175.368 55.7998C175.446 56.0146 175.486 56.3441 175.486 56.7881V58.8882C175.486 59.1997 175.511 59.411 175.561 59.522C175.6 59.6115 175.663 59.6813 175.749 59.7314C175.839 59.7816 176.001 59.8066 176.238 59.8066V60H173.805V59.8066H173.907C174.136 59.8066 174.295 59.7726 174.385 59.7046C174.478 59.633 174.542 59.5291 174.578 59.3931C174.592 59.3394 174.6 59.1711 174.6 58.8882V56.874C174.6 56.4264 174.54 56.1024 174.422 55.9019C174.308 55.6978 174.113 55.5957 173.837 55.5957C173.411 55.5957 172.986 55.8285 172.564 56.2939V58.8882C172.564 59.2212 172.584 59.4271 172.623 59.5059C172.673 59.6097 172.741 59.6867 172.827 59.7368C172.917 59.7834 173.096 59.8066 173.364 59.8066V60H170.931V59.8066H171.039C171.289 59.8066 171.457 59.744 171.543 59.6187C171.633 59.4897 171.678 59.2463 171.678 58.8882V57.062C171.678 56.4712 171.663 56.1113 171.635 55.9824C171.61 55.8535 171.568 55.7658 171.511 55.7192C171.457 55.6727 171.384 55.6494 171.291 55.6494C171.191 55.6494 171.071 55.6763 170.931 55.73L170.851 55.5366L172.333 54.9351H172.564V55.9771ZM180.412 52.3623V58.8882C180.412 59.1961 180.433 59.4002 180.476 59.5005C180.523 59.6007 180.593 59.6777 180.686 59.7314C180.779 59.7816 180.952 59.8066 181.207 59.8066V60H178.795V59.8066C179.021 59.8066 179.175 59.7834 179.257 59.7368C179.339 59.6903 179.404 59.6133 179.45 59.5059C179.497 59.3984 179.52 59.1925 179.52 58.8882V54.4194C179.52 53.8644 179.508 53.5243 179.483 53.3989C179.457 53.27 179.416 53.1823 179.359 53.1357C179.305 53.0892 179.235 53.0659 179.15 53.0659C179.056 53.0659 178.938 53.0946 178.795 53.1519L178.704 52.9639L180.17 52.3623H180.412ZM184.239 59.291C183.734 59.6813 183.417 59.9069 183.288 59.9678C183.095 60.0573 182.889 60.1021 182.671 60.1021C182.33 60.1021 182.049 59.9857 181.827 59.7529C181.609 59.5202 181.5 59.214 181.5 58.8345C181.5 58.5946 181.553 58.3869 181.661 58.2114C181.808 57.9679 182.062 57.7388 182.424 57.5239C182.789 57.3091 183.394 57.0477 184.239 56.7397V56.5464C184.239 56.0558 184.16 55.7192 184.003 55.5366C183.849 55.354 183.623 55.2627 183.326 55.2627C183.1 55.2627 182.921 55.3236 182.789 55.4453C182.653 55.5671 182.585 55.7067 182.585 55.8643L182.595 56.1758C182.595 56.3405 182.552 56.4676 182.467 56.5571C182.384 56.6466 182.275 56.6914 182.139 56.6914C182.006 56.6914 181.897 56.6449 181.811 56.5518C181.729 56.4587 181.688 56.3315 181.688 56.1704C181.688 55.8625 181.845 55.5796 182.16 55.3218C182.475 55.064 182.918 54.9351 183.487 54.9351C183.924 54.9351 184.282 55.0085 184.561 55.1553C184.772 55.2663 184.928 55.4399 185.029 55.6763C185.093 55.8302 185.125 56.1453 185.125 56.6216V58.292C185.125 58.7611 185.134 59.0493 185.152 59.1567C185.17 59.2606 185.199 59.3304 185.238 59.3662C185.281 59.402 185.329 59.4199 185.383 59.4199C185.44 59.4199 185.49 59.4074 185.533 59.3823C185.609 59.3358 185.754 59.2051 185.968 58.9902V59.291C185.567 59.8281 185.184 60.0967 184.819 60.0967C184.644 60.0967 184.504 60.0358 184.4 59.9141C184.296 59.7923 184.243 59.5846 184.239 59.291ZM184.239 58.9419V57.0674C183.698 57.2822 183.349 57.4344 183.192 57.5239C182.909 57.6815 182.706 57.8462 182.585 58.0181C182.463 58.1899 182.402 58.3779 182.402 58.582C182.402 58.8398 182.479 59.0547 182.633 59.2266C182.787 59.3949 182.964 59.479 183.165 59.479C183.437 59.479 183.795 59.3 184.239 58.9419ZM187.261 52.3623C187.411 52.3623 187.538 52.416 187.642 52.5234C187.749 52.6273 187.803 52.7544 187.803 52.9048C187.803 53.0552 187.749 53.1841 187.642 53.2915C187.538 53.3989 187.411 53.4526 187.261 53.4526C187.11 53.4526 186.981 53.3989 186.874 53.2915C186.766 53.1841 186.713 53.0552 186.713 52.9048C186.713 52.7544 186.765 52.6273 186.868 52.5234C186.976 52.416 187.107 52.3623 187.261 52.3623ZM187.706 54.9351V58.8882C187.706 59.1961 187.728 59.402 187.771 59.5059C187.817 59.6061 187.884 59.6813 187.97 59.7314C188.059 59.7816 188.22 59.8066 188.453 59.8066V60H186.063V59.8066C186.303 59.8066 186.464 59.7834 186.546 59.7368C186.629 59.6903 186.693 59.6133 186.74 59.5059C186.79 59.3984 186.815 59.1925 186.815 58.8882V56.9922C186.815 56.4587 186.799 56.1131 186.766 55.9556C186.741 55.841 186.702 55.7622 186.648 55.7192C186.595 55.6727 186.521 55.6494 186.428 55.6494C186.328 55.6494 186.206 55.6763 186.063 55.73L185.988 55.5366L187.47 54.9351H187.706ZM192.216 59.4468C191.976 59.6974 191.741 59.8783 191.512 59.9893C191.283 60.0967 191.036 60.1504 190.771 60.1504C190.234 60.1504 189.765 59.9266 189.364 59.479C188.963 59.0278 188.762 58.4495 188.762 57.7441C188.762 57.0387 188.984 56.3942 189.428 55.8105C189.872 55.2233 190.443 54.9297 191.141 54.9297C191.575 54.9297 191.933 55.0675 192.216 55.3433V54.4355C192.216 53.8734 192.201 53.5278 192.173 53.3989C192.148 53.27 192.106 53.1823 192.049 53.1357C191.992 53.0892 191.92 53.0659 191.834 53.0659C191.741 53.0659 191.618 53.0946 191.464 53.1519L191.394 52.9639L192.86 52.3623H193.102V58.0503C193.102 58.6268 193.114 58.9795 193.14 59.1084C193.168 59.2337 193.211 59.3215 193.268 59.3716C193.329 59.4217 193.399 59.4468 193.478 59.4468C193.575 59.4468 193.703 59.4163 193.865 59.3555L193.924 59.5435L192.463 60.1504H192.216V59.4468ZM192.216 59.0708V56.5356C192.194 56.2922 192.13 56.0701 192.022 55.8696C191.915 55.6691 191.772 55.5187 191.593 55.4185C191.417 55.3146 191.245 55.2627 191.077 55.2627C190.762 55.2627 190.481 55.4041 190.234 55.687C189.908 56.0594 189.745 56.6037 189.745 57.3198C189.745 58.0431 189.903 58.5981 190.218 58.9849C190.533 59.368 190.884 59.5596 191.27 59.5596C191.596 59.5596 191.911 59.3966 192.216 59.0708ZM198.737 54.9351C199.482 54.9351 200.08 55.2179 200.531 55.7837C200.914 56.2671 201.105 56.8221 201.105 57.4487C201.105 57.8892 201 58.335 200.789 58.7861C200.577 59.2373 200.286 59.5775 199.913 59.8066C199.544 60.0358 199.133 60.1504 198.678 60.1504C197.937 60.1504 197.348 59.855 196.911 59.2642C196.542 58.7664 196.357 58.2078 196.357 57.5884C196.357 57.1372 196.468 56.6896 196.69 56.2456C196.916 55.798 197.211 55.4686 197.577 55.2573C197.942 55.0425 198.329 54.9351 198.737 54.9351ZM198.57 55.2842C198.381 55.2842 198.189 55.3415 197.996 55.4561C197.806 55.5671 197.652 55.764 197.534 56.0469C197.416 56.3298 197.356 56.6932 197.356 57.1372C197.356 57.8534 197.498 58.471 197.781 58.9902C198.067 59.5094 198.443 59.769 198.909 59.769C199.256 59.769 199.543 59.6258 199.768 59.3394C199.994 59.0529 200.106 58.5605 200.106 57.8623C200.106 56.9886 199.918 56.3011 199.543 55.7998C199.288 55.4561 198.964 55.2842 198.57 55.2842ZM205.814 55.0801V58.061C205.814 58.6304 205.826 58.9795 205.851 59.1084C205.88 59.2337 205.923 59.3215 205.98 59.3716C206.041 59.4217 206.111 59.4468 206.19 59.4468C206.301 59.4468 206.426 59.4163 206.566 59.3555L206.641 59.5435L205.169 60.1504H204.927V59.1084C204.505 59.5667 204.183 59.855 203.961 59.9731C203.739 60.0913 203.504 60.1504 203.257 60.1504C202.981 60.1504 202.741 60.0716 202.537 59.9141C202.337 59.7529 202.197 59.547 202.118 59.2964C202.039 59.0457 202 58.6912 202 58.2329V56.0361C202 55.8034 201.975 55.6423 201.925 55.5527C201.875 55.4632 201.8 55.3952 201.699 55.3486C201.603 55.2985 201.425 55.2752 201.168 55.2788V55.0801H202.892V58.3726C202.892 58.8309 202.97 59.1317 203.128 59.2749C203.289 59.4181 203.483 59.4897 203.708 59.4897C203.862 59.4897 204.036 59.4414 204.229 59.3447C204.426 59.248 204.659 59.0636 204.927 58.7915V56.0039C204.927 55.7246 204.875 55.5366 204.772 55.4399C204.671 55.3397 204.46 55.286 204.138 55.2788V55.0801H205.814ZM208.099 53.4634V55.0801H209.249V55.4561H208.099V58.6465C208.099 58.9652 208.144 59.18 208.234 59.291C208.327 59.402 208.445 59.4575 208.588 59.4575C208.706 59.4575 208.821 59.4217 208.932 59.3501C209.043 59.2749 209.129 59.1657 209.19 59.0225H209.399C209.274 59.3734 209.097 59.6383 208.867 59.8174C208.638 59.9928 208.402 60.0806 208.158 60.0806C207.994 60.0806 207.833 60.0358 207.675 59.9463C207.517 59.8532 207.401 59.7225 207.326 59.5542C207.251 59.3823 207.213 59.1191 207.213 58.7646V55.4561H206.434V55.2788C206.631 55.2 206.832 55.0675 207.036 54.8813C207.244 54.6916 207.428 54.4678 207.589 54.21C207.671 54.0739 207.786 53.825 207.933 53.4634H208.099ZM127.131 72.291C126.626 72.6813 126.31 72.9069 126.181 72.9678C125.987 73.0573 125.781 73.1021 125.563 73.1021C125.223 73.1021 124.942 72.9857 124.72 72.7529C124.501 72.5202 124.392 72.214 124.392 71.8345C124.392 71.5946 124.446 71.3869 124.553 71.2114C124.7 70.9679 124.954 70.7388 125.316 70.5239C125.681 70.3091 126.286 70.0477 127.131 69.7397V69.5464C127.131 69.0558 127.053 68.7192 126.895 68.5366C126.741 68.354 126.515 68.2627 126.218 68.2627C125.993 68.2627 125.814 68.3236 125.681 68.4453C125.545 68.5671 125.477 68.7067 125.477 68.8643L125.488 69.1758C125.488 69.3405 125.445 69.4676 125.359 69.5571C125.277 69.6466 125.167 69.6914 125.031 69.6914C124.899 69.6914 124.79 69.6449 124.704 69.5518C124.621 69.4587 124.58 69.3315 124.58 69.1704C124.58 68.8625 124.738 68.5796 125.053 68.3218C125.368 68.064 125.81 67.9351 126.379 67.9351C126.816 67.9351 127.174 68.0085 127.454 68.1553C127.665 68.2663 127.821 68.4399 127.921 68.6763C127.985 68.8302 128.018 69.1453 128.018 69.6216V71.292C128.018 71.7611 128.027 72.0493 128.044 72.1567C128.062 72.2606 128.091 72.3304 128.13 72.3662C128.173 72.402 128.222 72.4199 128.275 72.4199C128.333 72.4199 128.383 72.4074 128.426 72.3823C128.501 72.3358 128.646 72.2051 128.861 71.9902V72.291C128.46 72.8281 128.077 73.0967 127.711 73.0967C127.536 73.0967 127.396 73.0358 127.292 72.9141C127.189 72.7923 127.135 72.5846 127.131 72.291ZM127.131 71.9419V70.0674C126.591 70.2822 126.242 70.4344 126.084 70.5239C125.801 70.6815 125.599 70.8462 125.477 71.0181C125.355 71.1899 125.294 71.3779 125.294 71.582C125.294 71.8398 125.371 72.0547 125.525 72.2266C125.679 72.3949 125.857 72.479 126.057 72.479C126.329 72.479 126.687 72.3 127.131 71.9419ZM133.08 71.1309C132.948 71.779 132.688 72.2785 132.301 72.6294C131.915 72.9767 131.487 73.1504 131.018 73.1504C130.459 73.1504 129.972 72.9159 129.557 72.4468C129.141 71.9777 128.934 71.3439 128.934 70.5454C128.934 69.772 129.163 69.1436 129.621 68.6602C130.083 68.1768 130.636 67.9351 131.281 67.9351C131.764 67.9351 132.162 68.064 132.473 68.3218C132.785 68.576 132.941 68.841 132.941 69.1167C132.941 69.2528 132.896 69.3638 132.806 69.4497C132.72 69.5321 132.599 69.5732 132.441 69.5732C132.23 69.5732 132.07 69.5052 131.963 69.3691C131.902 69.2939 131.861 69.1507 131.839 68.9395C131.822 68.7282 131.75 68.5671 131.625 68.4561C131.499 68.3486 131.326 68.2949 131.104 68.2949C130.746 68.2949 130.457 68.4274 130.239 68.6924C129.949 69.0433 129.804 69.507 129.804 70.0835C129.804 70.6707 129.947 71.1899 130.233 71.6411C130.524 72.0887 130.914 72.3125 131.404 72.3125C131.755 72.3125 132.07 72.1925 132.35 71.9526C132.547 71.7879 132.738 71.4889 132.924 71.0557L133.08 71.1309ZM137.638 71.1309C137.505 71.779 137.246 72.2785 136.859 72.6294C136.472 72.9767 136.044 73.1504 135.575 73.1504C135.017 73.1504 134.53 72.9159 134.114 72.4468C133.699 71.9777 133.491 71.3439 133.491 70.5454C133.491 69.772 133.721 69.1436 134.179 68.6602C134.641 68.1768 135.194 67.9351 135.839 67.9351C136.322 67.9351 136.719 68.064 137.031 68.3218C137.342 68.576 137.498 68.841 137.498 69.1167C137.498 69.2528 137.453 69.3638 137.364 69.4497C137.278 69.5321 137.156 69.5732 136.999 69.5732C136.787 69.5732 136.628 69.5052 136.521 69.3691C136.46 69.2939 136.419 69.1507 136.397 68.9395C136.379 68.7282 136.308 68.5671 136.182 68.4561C136.057 68.3486 135.883 68.2949 135.661 68.2949C135.303 68.2949 135.015 68.4274 134.797 68.6924C134.507 69.0433 134.361 69.507 134.361 70.0835C134.361 70.6707 134.505 71.1899 134.791 71.6411C135.081 72.0887 135.472 72.3125 135.962 72.3125C136.313 72.3125 136.628 72.1925 136.907 71.9526C137.104 71.7879 137.296 71.4889 137.482 71.0557L137.638 71.1309ZM140.423 67.9351C141.168 67.9351 141.766 68.2179 142.217 68.7837C142.6 69.2671 142.792 69.8221 142.792 70.4487C142.792 70.8892 142.686 71.335 142.475 71.7861C142.264 72.2373 141.972 72.5775 141.599 72.8066C141.231 73.0358 140.819 73.1504 140.364 73.1504C139.623 73.1504 139.034 72.855 138.597 72.2642C138.228 71.7664 138.044 71.2078 138.044 70.5884C138.044 70.1372 138.155 69.6896 138.377 69.2456C138.602 68.798 138.898 68.4686 139.263 68.2573C139.628 68.0425 140.015 67.9351 140.423 67.9351ZM140.257 68.2842C140.067 68.2842 139.875 68.3415 139.682 68.4561C139.492 68.5671 139.338 68.764 139.22 69.0469C139.102 69.3298 139.043 69.6932 139.043 70.1372C139.043 70.8534 139.184 71.471 139.467 71.9902C139.753 72.5094 140.129 72.769 140.595 72.769C140.942 72.769 141.229 72.6258 141.454 72.3394C141.68 72.0529 141.793 71.5605 141.793 70.8623C141.793 69.9886 141.605 69.3011 141.229 68.7998C140.975 68.4561 140.65 68.2842 140.257 68.2842ZM144.626 67.9351V69.0415C145.038 68.3039 145.461 67.9351 145.894 67.9351C146.091 67.9351 146.254 67.9959 146.383 68.1177C146.512 68.2358 146.576 68.3737 146.576 68.5312C146.576 68.6709 146.529 68.7891 146.436 68.8857C146.343 68.9824 146.232 69.0308 146.103 69.0308C145.978 69.0308 145.837 68.9699 145.679 68.8481C145.525 68.7228 145.41 68.6602 145.335 68.6602C145.271 68.6602 145.201 68.696 145.126 68.7676C144.965 68.9144 144.798 69.1561 144.626 69.4927V71.8506C144.626 72.1227 144.66 72.3286 144.728 72.4683C144.775 72.5649 144.857 72.6455 144.975 72.71C145.094 72.7744 145.264 72.8066 145.486 72.8066V73H142.967V72.8066C143.217 72.8066 143.403 72.7673 143.525 72.6885C143.615 72.6312 143.677 72.5399 143.713 72.4146C143.731 72.3537 143.74 72.18 143.74 71.8936V69.9868C143.74 69.4139 143.728 69.0737 143.702 68.9663C143.681 68.8553 143.638 68.7747 143.574 68.7246C143.513 68.6745 143.436 68.6494 143.343 68.6494C143.232 68.6494 143.106 68.6763 142.967 68.73L142.913 68.5366L144.401 67.9351H144.626ZM149.995 72.4468C149.755 72.6974 149.521 72.8783 149.291 72.9893C149.062 73.0967 148.815 73.1504 148.55 73.1504C148.013 73.1504 147.544 72.9266 147.143 72.479C146.742 72.0278 146.541 71.4495 146.541 70.7441C146.541 70.0387 146.763 69.3942 147.207 68.8105C147.651 68.2233 148.223 67.9297 148.921 67.9297C149.354 67.9297 149.712 68.0675 149.995 68.3433V67.4355C149.995 66.8734 149.981 66.5278 149.952 66.3989C149.927 66.27 149.886 66.1823 149.829 66.1357C149.771 66.0892 149.7 66.0659 149.614 66.0659C149.521 66.0659 149.397 66.0946 149.243 66.1519L149.173 65.9639L150.64 65.3623H150.881V71.0503C150.881 71.6268 150.894 71.9795 150.919 72.1084C150.947 72.2337 150.99 72.3215 151.048 72.3716C151.109 72.4217 151.178 72.4468 151.257 72.4468C151.354 72.4468 151.483 72.4163 151.644 72.3555L151.703 72.5435L150.242 73.1504H149.995V72.4468ZM149.995 72.0708V69.5356C149.974 69.2922 149.909 69.0701 149.802 68.8696C149.694 68.6691 149.551 68.5187 149.372 68.4185C149.197 68.3146 149.025 68.2627 148.856 68.2627C148.541 68.2627 148.26 68.4041 148.013 68.687C147.687 69.0594 147.524 69.6037 147.524 70.3198C147.524 71.0431 147.682 71.5981 147.997 71.9849C148.312 72.368 148.663 72.5596 149.05 72.5596C149.376 72.5596 149.691 72.3966 149.995 72.0708ZM152.941 65.3623C153.092 65.3623 153.219 65.416 153.323 65.5234C153.43 65.6273 153.484 65.7544 153.484 65.9048C153.484 66.0552 153.43 66.1841 153.323 66.2915C153.219 66.3989 153.092 66.4526 152.941 66.4526C152.791 66.4526 152.662 66.3989 152.555 66.2915C152.447 66.1841 152.394 66.0552 152.394 65.9048C152.394 65.7544 152.445 65.6273 152.549 65.5234C152.657 65.416 152.787 65.3623 152.941 65.3623ZM153.387 67.9351V71.8882C153.387 72.1961 153.409 72.402 153.452 72.5059C153.498 72.6061 153.564 72.6813 153.65 72.7314C153.74 72.7816 153.901 72.8066 154.134 72.8066V73H151.744V72.8066C151.984 72.8066 152.145 72.7834 152.227 72.7368C152.309 72.6903 152.374 72.6133 152.42 72.5059C152.471 72.3984 152.496 72.1925 152.496 71.8882V69.9922C152.496 69.4587 152.479 69.1131 152.447 68.9556C152.422 68.841 152.383 68.7622 152.329 68.7192C152.275 68.6727 152.202 68.6494 152.109 68.6494C152.009 68.6494 151.887 68.6763 151.744 68.73L151.668 68.5366L153.151 67.9351H153.387ZM155.856 68.9771C156.432 68.2824 156.982 67.9351 157.504 67.9351C157.773 67.9351 158.004 68.0031 158.197 68.1392C158.391 68.2716 158.545 68.4919 158.659 68.7998C158.738 69.0146 158.777 69.3441 158.777 69.7881V71.8882C158.777 72.1997 158.802 72.411 158.853 72.522C158.892 72.6115 158.955 72.6813 159.041 72.7314C159.13 72.7816 159.293 72.8066 159.529 72.8066V73H157.096V72.8066H157.198C157.427 72.8066 157.587 72.7726 157.676 72.7046C157.769 72.633 157.834 72.5291 157.87 72.3931C157.884 72.3394 157.891 72.1711 157.891 71.8882V69.874C157.891 69.4264 157.832 69.1024 157.714 68.9019C157.599 68.6978 157.404 68.5957 157.128 68.5957C156.702 68.5957 156.278 68.8285 155.856 69.2939V71.8882C155.856 72.2212 155.875 72.4271 155.915 72.5059C155.965 72.6097 156.033 72.6867 156.119 72.7368C156.208 72.7834 156.387 72.8066 156.656 72.8066V73H154.223V72.8066H154.33C154.581 72.8066 154.749 72.744 154.835 72.6187C154.925 72.4897 154.969 72.2463 154.969 71.8882V70.062C154.969 69.4712 154.955 69.1113 154.926 68.9824C154.901 68.8535 154.86 68.7658 154.803 68.7192C154.749 68.6727 154.676 68.6494 154.583 68.6494C154.482 68.6494 154.362 68.6763 154.223 68.73L154.142 68.5366L155.625 67.9351H155.856V68.9771ZM160.907 71.2061C160.607 71.0592 160.376 70.8551 160.214 70.5938C160.053 70.3288 159.973 70.0369 159.973 69.7183C159.973 69.2313 160.155 68.8123 160.521 68.4614C160.889 68.1105 161.36 67.9351 161.933 67.9351C162.402 67.9351 162.809 68.0496 163.152 68.2788H164.194C164.348 68.2788 164.438 68.2842 164.463 68.2949C164.488 68.3021 164.506 68.3164 164.517 68.3379C164.538 68.3701 164.549 68.4274 164.549 68.5098C164.549 68.6029 164.54 68.6673 164.522 68.7031C164.511 68.721 164.492 68.7354 164.463 68.7461C164.438 68.7568 164.348 68.7622 164.194 68.7622H163.555C163.756 69.02 163.856 69.3494 163.856 69.7505C163.856 70.2088 163.681 70.6009 163.33 70.9268C162.979 71.2526 162.508 71.4155 161.917 71.4155C161.674 71.4155 161.425 71.3797 161.171 71.3081C161.013 71.4442 160.906 71.5641 160.848 71.668C160.795 71.7682 160.768 71.8542 160.768 71.9258C160.768 71.9867 160.796 72.0457 160.854 72.103C160.915 72.1603 161.031 72.2015 161.203 72.2266C161.303 72.2409 161.554 72.2534 161.955 72.2642C162.692 72.2821 163.17 72.3071 163.389 72.3394C163.722 72.3859 163.987 72.5094 164.184 72.71C164.384 72.9105 164.485 73.1576 164.485 73.4512C164.485 73.8558 164.295 74.2354 163.915 74.5898C163.357 75.1126 162.628 75.374 161.729 75.374C161.038 75.374 160.454 75.2183 159.978 74.9067C159.71 74.7277 159.575 74.5415 159.575 74.3481C159.575 74.2622 159.595 74.1763 159.634 74.0903C159.695 73.9578 159.821 73.7734 160.01 73.5371C160.035 73.5049 160.218 73.3115 160.558 72.957C160.372 72.846 160.24 72.7476 160.161 72.6616C160.086 72.5721 160.048 72.4718 160.048 72.3608C160.048 72.2355 160.098 72.0887 160.198 71.9204C160.302 71.7521 160.539 71.514 160.907 71.2061ZM161.842 68.1929C161.577 68.1929 161.355 68.2985 161.176 68.5098C160.997 68.721 160.907 69.0451 160.907 69.4819C160.907 70.0477 161.029 70.4863 161.273 70.7979C161.459 71.0342 161.695 71.1523 161.982 71.1523C162.254 71.1523 162.478 71.0503 162.653 70.8462C162.828 70.6421 162.916 70.3216 162.916 69.8848C162.916 69.3154 162.793 68.8696 162.546 68.5474C162.363 68.311 162.128 68.1929 161.842 68.1929ZM160.854 73C160.685 73.1826 160.558 73.3527 160.472 73.5103C160.386 73.6678 160.343 73.8128 160.343 73.9453C160.343 74.1172 160.447 74.2676 160.655 74.3965C161.013 74.6185 161.53 74.7295 162.207 74.7295C162.852 74.7295 163.326 74.6149 163.631 74.3857C163.938 74.1602 164.092 73.9185 164.092 73.6606C164.092 73.4744 164.001 73.342 163.818 73.2632C163.632 73.1844 163.263 73.1379 162.712 73.1235C161.906 73.1021 161.287 73.0609 160.854 73ZM168.61 66.4634V68.0801H169.76V68.4561H168.61V71.6465C168.61 71.9652 168.655 72.18 168.744 72.291C168.838 72.402 168.956 72.4575 169.099 72.4575C169.217 72.4575 169.332 72.4217 169.443 72.3501C169.554 72.2749 169.64 72.1657 169.7 72.0225H169.91C169.785 72.3734 169.607 72.6383 169.378 72.8174C169.149 72.9928 168.913 73.0806 168.669 73.0806C168.505 73.0806 168.343 73.0358 168.186 72.9463C168.028 72.8532 167.912 72.7225 167.837 72.5542C167.762 72.3823 167.724 72.1191 167.724 71.7646V68.4561H166.945V68.2788C167.142 68.2 167.343 68.0675 167.547 67.8813C167.754 67.6916 167.939 67.4678 168.1 67.21C168.182 67.0739 168.297 66.825 168.444 66.4634H168.61ZM172.319 67.9351C173.064 67.9351 173.662 68.2179 174.113 68.7837C174.496 69.2671 174.688 69.8221 174.688 70.4487C174.688 70.8892 174.582 71.335 174.371 71.7861C174.16 72.2373 173.868 72.5775 173.495 72.8066C173.127 73.0358 172.715 73.1504 172.26 73.1504C171.519 73.1504 170.93 72.855 170.493 72.2642C170.124 71.7664 169.94 71.2078 169.94 70.5884C169.94 70.1372 170.051 69.6896 170.273 69.2456C170.498 68.798 170.794 68.4686 171.159 68.2573C171.524 68.0425 171.911 67.9351 172.319 67.9351ZM172.153 68.2842C171.963 68.2842 171.771 68.3415 171.578 68.4561C171.388 68.5671 171.234 68.764 171.116 69.0469C170.998 69.3298 170.939 69.6932 170.939 70.1372C170.939 70.8534 171.08 71.471 171.363 71.9902C171.65 72.5094 172.026 72.769 172.491 72.769C172.838 72.769 173.125 72.6258 173.35 72.3394C173.576 72.0529 173.689 71.5605 173.689 70.8623C173.689 69.9886 173.501 69.3011 173.125 68.7998C172.871 68.4561 172.547 68.2842 172.153 68.2842ZM176.114 71.958C176.283 71.958 176.424 72.0171 176.539 72.1353C176.653 72.2498 176.71 72.3895 176.71 72.5542C176.71 72.7189 176.651 72.8604 176.533 72.9785C176.419 73.0931 176.279 73.1504 176.114 73.1504C175.95 73.1504 175.808 73.0931 175.69 72.9785C175.575 72.8604 175.518 72.7189 175.518 72.5542C175.518 72.3859 175.575 72.2445 175.69 72.1299C175.808 72.0153 175.95 71.958 176.114 71.958ZM178.534 71.958C178.703 71.958 178.844 72.0171 178.959 72.1353C179.073 72.2498 179.13 72.3895 179.13 72.5542C179.13 72.7189 179.071 72.8604 178.953 72.9785C178.839 73.0931 178.699 73.1504 178.534 73.1504C178.37 73.1504 178.228 73.0931 178.11 72.9785C177.995 72.8604 177.938 72.7189 177.938 72.5542C177.938 72.3859 177.995 72.2445 178.11 72.1299C178.228 72.0153 178.37 71.958 178.534 71.958ZM180.954 71.958C181.123 71.958 181.264 72.0171 181.379 72.1353C181.493 72.2498 181.55 72.3895 181.55 72.5542C181.55 72.7189 181.491 72.8604 181.373 72.9785C181.259 73.0931 181.119 73.1504 180.954 73.1504C180.79 73.1504 180.648 73.0931 180.53 72.9785C180.415 72.8604 180.358 72.7189 180.358 72.5542C180.358 72.3859 180.415 72.2445 180.53 72.1299C180.648 72.0153 180.79 71.958 180.954 71.958Z" fill="black"/>
</svg>
