<svg width="30" height="23" viewBox="0 0 30 23" fill="none" xmlns="http://www.w3.org/2000/svg">
<g clip-path="url(#clip0_3007_18996)">
<path d="M27 3.5H3C2.72386 3.5 2.5 3.72386 2.5 4V19C2.5 19.2761 2.72386 19.5 3 19.5H27C27.2761 19.5 27.5 19.2761 27.5 19V4C27.5 3.72386 27.2761 3.5 27 3.5Z" fill="#D9D9D9" stroke="black"/>
<path d="M21 13C23.2091 13 25 11.2091 25 9C25 6.79086 23.2091 5 21 5C18.7909 5 17 6.79086 17 9C17 11.2091 18.7909 13 21 13Z" fill="#9F9F9F"/>
<path d="M1 3H29" stroke="black" stroke-width="2" stroke-linecap="round"/>
<path d="M5 10.5H15" stroke="black"/>
<path d="M5 14.5H15" stroke="black"/>
<path d="M5 6.5H15" stroke="black"/>
<path d="M15.5 23V20" stroke="black"/>
<path d="M15.5 3V1" stroke="black" stroke-linecap="round"/>
</g>
<defs>
<clipPath id="clip0_3007_18996">
<rect width="30" height="23" fill="white"/>
</clipPath>
</defs>
</svg>
